<?xml version="1.0" encoding="utf-8"?>
<!DOCTYPE svg PUBLIC "-//W3C//DTD SVG 1.1//EN" "http://www.w3.org/Graphics/SVG/1.1/DTD/svg11.dtd">
<svg version="1.1" id="Search" xmlns="http://www.w3.org/2000/svg" xmlns:xlink="http://www.w3.org/1999/xlink" x="0px" y="0px" viewBox="0 0 16 16" style="enable-background:new 0 0 16 16;" xml:space="preserve">
	<style type="text/css">
		.color {fill: #333333;}
	</style>
	<path class="color" d="M15.7,14.3l-3.1-3.1C13.5,10,14,8.6,14,7c0-3.9-3.1-7-7-7S0,3.1,0,7c0,3.9,3.1,7,7,7c1.6,0,3-0.5,4.2-1.4l3.1,3.1c0.4,0.4,1,0.4,1.4,0S16.1,14.7,15.7,14.3zM2,7c0-2.8,2.2-5,5-5s5,2.2,5,5s-2.2,5-5,5S2,9.8,2,7z"/>
</svg>
