<?xml version="1.0" encoding="utf-8"?>
<!DOCTYPE svg PUBLIC "-//W3C//DTD SVG 1.1//EN" "http://www.w3.org/Graphics/SVG/1.1/DTD/svg11.dtd">
<svg version="1.1" id="Login" xmlns="http://www.w3.org/2000/svg" xmlns:xlink="http://www.w3.org/1999/xlink" x="0px" y="0px" viewBox="0 0 16 16" style="enable-background:new 0 0 16 16;" xml:space="preserve">
	<style type="text/css">
		.color {fill: #333333;}
	</style>
	<g transform="matrix(1.3333333,0,0,-1.3333333,0,21.333333)">
		<g transform="scale(0.1)">
			<path class="color" d="M80.8,80.2c2.7,3.2,2.2,7.9-1,10.6c-3.2,2.6-7.9,2.2-10.6-1C66.6,86.6,63.5,85,60,85c-3.8,0-6.5,1.4-9.1,4.7c-2.6,3.2-7.3,3.8-10.5,1.2c-3.2-2.6-3.8-7.3-1.2-10.5C44.6,73.5,51.6,70,60,70C67.9,70,75.3,73.6,80.8,80.2zM82.5,115c-4.1,0-7.5-3.4-7.5-7.5s3.4-7.5,7.5-7.5c4.1,0,7.5,3.4,7.5,7.5S86.6,115,82.5,115zM37.5,115c-4.1,0-7.5-3.4-7.5-7.5s3.4-7.5,7.5-7.5s7.5,3.4,7.5,7.5S41.6,115,37.5,115z M60,160c-33.1,0-60-26.9-60-60c0-33.1,26.9-60,60-60c33.1,0,60,26.9,60,60C120,133.1,93.1,160,60,160z M60,145c24.8,0,45-20.2,45-45c0-24.8-20.2-45-45-45c-24.8,0-45,20.2-45,45C15,124.8,35.2,145,60,145"/>
		</g>
	</g>
</svg>
