<?xml version="1.0" encoding="utf-8"?>
<!-- Generator: Adobe Illustrator 21.1.0, SVG Export Plug-In . SVG Version: 6.00 Build 0)  -->
<!DOCTYPE svg PUBLIC "-//W3C//DTD SVG 1.1//EN" "http://www.w3.org/Graphics/SVG/1.1/DTD/svg11.dtd">
<svg version="1.1" id="Contact" xmlns="http://www.w3.org/2000/svg" xmlns:xlink="http://www.w3.org/1999/xlink" x="0px" y="0px" viewBox="0 0 16 16" style="enable-background:new 0 0 16 16;" xml:space="preserve">
	<style type="text/css">
		.color {fill: #333333;}
	</style>
	<g transform="matrix(1.3333333,0,0,-1.3333333,0,21.333333)">
		<g transform="scale(0.1)">
			<path class="color" d="M60,88.8c-6.2,0-11.3,5-11.3,11.2c0,6.2,5.1,11.3,11.3,11.3c6.2,0,11.3-5,11.3-11.3C71.3,93.8,66.2,88.8,60,88.8z M103.8,142.5c-11.4,11.3-27.4,17.8-43.9,17.4c-32-0.4-59.4-27.9-59.9-59.9c-0.2-16,5.8-31,16.9-42.2C28.3,46.3,43.6,40,60,40c8.9,0,17.8,2,25.8,5.8c3.7,1.8,5.3,6.2,3.6,10c-1.8,3.7-6.2,5.3-10,3.6C73.3,56.5,66.8,55,60,55c-12.4,0-23.9,4.8-32.4,13.4C19.3,76.8,14.8,88,15,99.9c0.3,23.7,21.4,44.8,45.1,45.1c12.3,0.3,24.5-4.6,33.1-13.1c7.7-7.6,11.9-17.6,11.8-28.1c0-1.5-0.2-4.5-0.4-5.7c-0.8-5.2-5.4-8.9-10.8-8.9c-4.1,0-7.5,3.4-7.5,7.5v22.5c0,4.1-3.4,7.5-7.5,7.5c-2.7,0-5-1.5-6.3-3.7c-3.7,2-7.9,3.3-12.4,3.3c-14.5,0-26.3-11.8-26.3-26.2c0-14.5,11.8-26.2,26.3-26.2c6.9,0,13.1,2.7,17.8,7.1c4.1-4.1,9.7-6.6,15.9-6.6c12.8,0,23.6,9.1,25.6,21.5c0.4,2.2,0.6,6,0.6,8C120.1,118.3,114.3,132.1,103.8,142.5"/>
		</g>
	</g>
</svg>