<?xml version="1.0" encoding="utf-8"?>
<!DOCTYPE svg PUBLIC "-//W3C//DTD SVG 1.1//EN" "http://www.w3.org/Graphics/SVG/1.1/DTD/svg11.dtd">
<svg version="1.1" id="Language_1_" xmlns="http://www.w3.org/2000/svg" xmlns:xlink="http://www.w3.org/1999/xlink" x="0px" y="0px" viewBox="0 0 16 16" style="enable-background:new 0 0 16 16;" xml:space="preserve">
	<style type="text/css">
		.color {fill: #333333;}
	</style>
	<g transform="matrix(1.3333333,0,0,-1.3333333,0,21.333333)">
		<g transform="scale(0.1)">
			<path class="color" d="M60,55c-23.1,0-42.2,17.5-44.7,40c0.8,2.8,3.8,5.3,7.2,6.6l2,1c6.6,2.8,11.8,8.2,14.5,15c2.7,6.8,2.6,14.2-0.2,20.8l-0.4,1C44.8,143,52.2,145,60,145c7.7,0,14.9-1.9,21.2-5.3c-1-1.4-1.7-3-2.2-4.7c-1.2-4.9,0.5-10.1,4.2-13.4c1.6-1.5,2.2-3.9,1.6-6.2c-0.8-3.4-4.3-5.5-7.7-4.7c-0.5,0.1-0.7,0.2-1,0.3c-0.5,0.3-1.4,0.8-3.1,1.7c-4.4,2.1-9.2,2.6-14.1,1.6c-7.1-1.4-13.4-6.4-16.2-12.9C40,95,40.1,87.9,43.1,81.9c3-6.1,8.5-10.5,15.1-12c1.8-0.4,3.6-0.6,5.4-0.6c8.5,0,16.4,4.8,20.3,12.7c0.9,1.9,2.7,3.3,4.8,3.9c2.1,0.6,4.4,0.2,6.2-1c2.1-1.4,4.2-2.5,6.1-3.3C93.9,65.9,78.2,55,60,55z M60,160c-33.1,0-60-26.9-60-60c0-33.1,26.9-60,60-60c33.1,0,60,26.9,60,60C120,133.1,93.1,160,60,160"/>
		</g>
	</g>
</svg>
