<svg id="motive" xmlns="http://www.w3.org/2000/svg" viewBox="0 0 60 60"><title>icon-matchmaking__H60</title><path d="M30,13A17,17,0,1,0,47,30,17,17,0,0,0,30,13Zm2.28,31.81a6.66,6.66,0,0,0-7.43-.73,15,15,0,0,1-4.72-2.8,6.8,6.8,0,0,1,1.46-3.6A3.5,3.5,0,0,0,22,37.2l.05-.06h0a3.41,3.41,0,0,0,.48-2.54,3.58,3.58,0,0,0-2-2.54,3.35,3.35,0,0,0-1.89-.27.78.78,0,1,1-.14-1.56,5.73,5.73,0,0,0,1.34-11.17A14.7,14.7,0,0,1,32.36,15.2a2.52,2.52,0,0,1-2.6,2,2.83,2.83,0,0,0-3,2.43,2.71,2.71,0,0,0,2.55,3l.92,0A16.78,16.78,0,0,0,34.84,22a3.18,3.18,0,0,1,.54-.08,1.35,1.35,0,0,1-.15,2.71c-.23,0-1-.27-1.19-.31a5.74,5.74,0,0,0-3.94,10.6,1.3,1.3,0,0,1,.56,1.51A3.08,3.08,0,0,0,32,40.06a3,3,0,0,0,4.28-1.68l.37-1.13.56-1.71,1.4-4.25h0a5.7,5.7,0,0,0,.09-2.06l.48.53a2.7,2.7,0,0,0,3.92.2,2.58,2.58,0,0,0,0-3.51A2.55,2.55,0,0,1,43.24,23a15,15,0,0,1-11,21.85Z"/><path d="M35,54H7a1,1,0,0,1-1-1V25.41l2.29,2.29a1,1,0,0,0,1.41-1.41l-4-4a1,1,0,0,0-1.42,0l-4,4a1,1,0,0,0,1.41,1.41L4,25.41V53a3,3,0,0,0,3,3H35a1,1,0,0,0,0-2Z"/><path d="M25,6H53a1,1,0,0,1,1,1V34.59l-2.29-2.29a1,1,0,0,0-1.41,1.41l4,4a1,1,0,0,0,1.42,0l4-4a1,1,0,0,0-1.41-1.41L56,34.59V7a3,3,0,0,0-3-3H25a1,1,0,0,0,0,2Z"/><path d="M8,16A8,8,0,1,0,0,8,8,8,0,0,0,8,16ZM8,2A6,6,0,1,1,2,8,6,6,0,0,1,8,2Z"/><circle cx="5" cy="7" r="1"/><circle cx="11" cy="7" r="1"/><path d="M5,9.27a1,1,0,0,0,0,1.41A4,4,0,0,0,8,12a4.22,4.22,0,0,0,3-1.29A1,1,0,1,0,9.61,9.3,2.21,2.21,0,0,1,8,10a2,2,0,0,1-1.59-.67A1,1,0,0,0,5,9.27Z"/><path d="M52,44a8,8,0,1,0,8,8A8,8,0,0,0,52,44Zm0,14a6,6,0,1,1,6-6A6,6,0,0,1,52,58Z"/><path d="M53.61,53.3A2.21,2.21,0,0,1,52,54a2,2,0,0,1-1.59-.67,1,1,0,1,0-1.46,1.37A4,4,0,0,0,52,56a4.22,4.22,0,0,0,3-1.29,1,1,0,1,0-1.43-1.4Z"/><circle cx="49" cy="51" r="1"/><circle cx="55" cy="51" r="1"/></svg>