<?xml version="1.0" encoding="utf-8"?>
<!DOCTYPE svg PUBLIC "-//W3C//DTD SVG 1.1//EN" "http://www.w3.org/Graphics/SVG/1.1/DTD/svg11.dtd">
<svg version="1.1" id="icon-share__H18" xmlns="http://www.w3.org/2000/svg" xmlns:xlink="http://www.w3.org/1999/xlink" x="0px" y="0px" viewBox="0 0 18 18" style="enable-background:new 0 0 18 18;" xml:space="preserve">
	<style type="text/css">
		.color {fill: #333333;}
	</style>
	<g transform="matrix(1.3333333,0,0,-1.3333333,0,24)">
		<g transform="scale(0.1)">
			<path class="color" d="M108.8,60c-6.2,0-11.3,5-11.3,11.2c0,6.2,5,11.3,11.3,11.3c6.2,0,11.2-5,11.2-11.3C120,65,115,60,108.8,60z M108.8,165c6.2,0,11.2-5,11.2-11.2c0-6.2-5-11.3-11.2-11.3c-6.2,0-11.3,5-11.3,11.3C97.5,160,102.5,165,108.8,165z M108.8,97.5c-7.4,0-14-3.1-18.8-8l-30.8,16.1c0.5,2.2,0.8,4.5,0.8,6.8c0,2.4-0.3,4.6-0.8,6.8L90,135.5c4.8-4.9,11.4-8,18.8-8c14.5,0,26.2,11.8,26.2,26.3c0,14.5-11.8,26.2-26.2,26.2s-26.3-11.8-26.3-26.2c0-1.7,0.2-3.4,0.5-5l-30.9-16.2c-5.5,6.1-13.3,9.9-22.1,9.9c-16.5,0-30-13.5-30-30c0-16.5,13.5-30,30-30c8.8,0,16.7,3.9,22.1,9.9L83,76.3c-0.3-1.6-0.5-3.3-0.5-5c0-14.5,11.8-26.3,26.3-26.3S135,56.8,135,71.3S123.2,97.5,108.8,97.5"/>
		</g>
	</g>
</svg>