<svg id="motive" xmlns="http://www.w3.org/2000/svg" viewBox="0 0 60 60"><title>icon-koelnmesse__H60</title><path d="M13.06,2.17l.5-.33A1,1,0,0,0,13,0H7A2,2,0,0,0,5,2V14a1,1,0,0,0,2,0V6h6a1,1,0,0,0,.55-1.83l-.5-.33a1,1,0,0,1,0-1.67Z"/><path d="M29.56,4.17l-.5-.33a1,1,0,0,1,0-1.67l.5-.33A1,1,0,0,0,29,0H23a2,2,0,0,0-2,2V16a1,1,0,0,0,2,0V6h6a1,1,0,0,0,.55-1.83Z"/><path d="M59.66,17.25a1,1,0,0,0-.79-.24l-8.5,1.17a149,149,0,0,1-40.72,0L1.14,17A1,1,0,0,0,0,18V55a1,1,0,0,0,1.14,1L5,55.46V59a1,1,0,0,0,2,0V55.18l2.64-.36c3.77-.52,7.56-.88,11.36-1.11V57a1,1,0,0,0,2,0V53.61q7-.33,14,0V57a1,1,0,0,0,2,0V53.71c3.8.23,7.59.59,11.36,1.11l2.64.36V59a1,1,0,0,0,2,0V55.46l3.86.53H59a1,1,0,0,0,1-1V18A1,1,0,0,0,59.66,17.25ZM5,53.44l-3,.41V26.17l3,.48ZM5,24.63l-3-.48v-2l3,.41ZM21,51.71l-3,.21V47a2,2,0,0,0-2-2H12a2,2,0,0,0-2,2v5.76l-.63.08L7,53.16V27l2.35.38c3.87.62,7.76,1,11.65,1.32Zm0-25c-3.79-.27-7.57-.68-11.34-1.29L7,24.95V22.84l2.37.33c3.86.53,7.75.9,11.63,1.13ZM37,51.6c-1,0-2-.07-3-.1V46a2,2,0,0,0-2-2H28a2,2,0,0,0-2,2v5.51c-1,0-2,0-3,.1V28.79c2.33.13,4.67.21,7,.21s4.67-.09,7-.21Zm0-24.82a128,128,0,0,1-14,0V24.4c2.33.11,4.67.18,7,.18s4.67-.07,7-.18ZM53,53.16l-2.37-.33L50,52.76V47a2,2,0,0,0-2-2H44a2,2,0,0,0-2,2v4.91l-3-.21v-23c3.89-.27,7.78-.7,11.65-1.32L53,27Zm0-28.21-2.66.43c-3.77.6-7.55,1-11.34,1.29V24.29c3.89-.23,7.77-.6,11.63-1.13L53,22.84Zm5,28.9-3-.41V26.65l3-.48Zm0-29.7-3,.48V22.56l3-.41Z"/></svg>