<svg id="motive" xmlns="http://www.w3.org/2000/svg" viewBox="0 0 60 60"><title>icon-voucher__H60</title><path d="M58.75,19.41l-4.87-4.87L53.33,14A1,1,0,0,0,52,13.89a4.44,4.44,0,0,1-1.4.6l-.19,0a4.29,4.29,0,0,1-.65.07h-.3l-.46,0-.31-.06a4.27,4.27,0,0,1-.46-.14l-.29-.1A4.26,4.26,0,0,1,47.5,14l-.23-.13A4.28,4.28,0,0,1,45.8,8.5a2.08,2.08,0,0,0-.34-2.39L40.59,1.25a4.27,4.27,0,0,0-3-1.25h0a4.3,4.3,0,0,0-.82.08,4.26,4.26,0,0,0-2.21,1.18L1.25,34.54a4.28,4.28,0,0,0,0,6.05l4.86,4.86a2,2,0,0,0,1.4.57,2.31,2.31,0,0,0,1-.23,4.28,4.28,0,0,1,5.7,5.7,2.08,2.08,0,0,0,.34,2.39l4.87,4.87a4.28,4.28,0,0,0,6.05,0L58.75,25.46A4.28,4.28,0,0,0,58.75,19.41ZM24,57.33a2.28,2.28,0,0,1-3.22,0L16,52.5a.26.26,0,0,1,0-.15A6.28,6.28,0,0,0,7.64,44c-.06,0-.11,0-.12,0L2.67,39.18a2.28,2.28,0,0,1,0-3.22L27.89,10.73,49.27,32.11Z"/><path d="M36.43,33.19,32,29.66l-.66-4.6a1,1,0,0,0-1.48-.73l-4.29,2.38-5-1.06a1,1,0,0,0-1.19,1.19l1.06,5L18,36.13a1,1,0,0,0,.73,1.48l4.6.66,3.53,4.46a1,1,0,0,0,.78.38h.14a1,1,0,0,0,.79-.6l2.24-5.36,5.36-2.24a1,1,0,0,0,.23-1.71Z"/></svg>