<svg id="motive" xmlns="http://www.w3.org/2000/svg" viewBox="0 0 60 60"><title>icon-world__H60</title><path d="M30,0A30,30,0,1,0,60,30,30,30,0,0,0,30,0Zm5.39,57.47a.55.55,0,0,0-.08-.13,11.81,11.81,0,0,0-16-1.47,28,28,0,0,1-6.86-4.08,3.66,3.66,0,0,0,0-.43c-.22-2.78,1.59-5.69,2.68-7.17a6.43,6.43,0,0,0,.69-.88l.1-.11h0a6.27,6.27,0,0,0,.88-4.67A6.58,6.58,0,0,0,13,33.85a6.15,6.15,0,0,0-3.47-.49,1.44,1.44,0,1,1-.27-2.86A10.54,10.54,0,0,0,10.74,9.7,27.88,27.88,0,0,1,34.65,2.39c0,.47,0,.93,0,.93a4.64,4.64,0,0,1-4.86,4.4,5.17,5.17,0,0,0-5.54,4.44,5,5,0,0,0,4.67,5.44l1.69.09A30.69,30.69,0,0,0,39,16.46a5.83,5.83,0,0,1,1-.15,2.48,2.48,0,1,1-.27,4.95c-.43,0-1.82-.5-2.18-.56a10.51,10.51,0,0,0-7.21,19.4,2.38,2.38,0,0,1,1,2.76,5.63,5.63,0,0,0,2.5,6.61,5.47,5.47,0,0,0,7.83-3.08l.68-2.08,1-3.12L46,33.42l0,0a10.44,10.44,0,0,0,.16-3.76l.87,1a5,5,0,0,0,7.18.37,4.72,4.72,0,0,0,.07-6.42c-1.52-1.68-1.3-5.47.81-7a28,28,0,0,1-19.66,40Z"/></svg>