<?xml version="1.0" encoding="utf-8"?>
<!DOCTYPE svg PUBLIC "-//W3C//DTD SVG 1.1//EN" "http://www.w3.org/Graphics/SVG/1.1/DTD/svg11.dtd">
<svg version="1.1" id="icon-social-twitter__H20" xmlns="http://www.w3.org/2000/svg" xmlns:xlink="http://www.w3.org/1999/xlink" x="0px" y="0px" viewBox="0 0 25 20" style="enable-background:new 0 0 25 20;" xml:space="preserve">
	<style type="text/css">
		.color {fill: #000000;}
	</style>
	<path class="color" d="M22.5,5c0,0.2,0,0.3,0,0.7c0,1.3-0.2,2.7-0.6,4.1c-0.4,1.3-1,2.7-1.8,3.9s-1.8,2.3-3,3.2c-1.1,0.9-2.5,1.8-4.1,2.2C11.4,19.8,9.7,20,7.9,20C5,20,2.4,19.2,0,17.8c0.4,0.1,0.8,0.1,1.2,0.1c2.3,0,4.5-0.7,6.4-2.2c-1.1,0-2.1-0.3-3-1c-0.9-0.7-1.5-1.5-1.8-2.5c0.4,0.1,0.7,0.1,1,0.1c0.5,0,0.9-0.1,1.4-0.2c-1.2-0.2-2.2-0.8-3-1.8s-1.1-2-1.1-3.2V7c0.7,0.4,1.5,0.6,2.3,0.7C2.7,7.3,2.1,6.6,1.7,5.8S1.1,4.3,1.1,3.4c0-0.9,0.2-1.8,0.7-2.6c1.3,1.6,2.8,2.8,4.7,3.8c1.8,0.9,3.8,1.4,5.9,1.6c-0.1-0.4-0.2-0.8-0.2-1.2c0-1.4,0.5-2.6,1.5-3.6C14.8,0.5,16,0,17.3,0c1.5,0,2.7,0.5,3.7,1.6c1.1-0.3,2.3-0.7,3.3-1.2c-0.4,1.2-1.1,2.2-2.3,2.8c1-0.1,2-0.3,3-0.7C24.4,3.4,23.5,4.3,22.5,5z"/>
</svg>
