<?xml version="1.0" encoding="utf-8"?>
<!DOCTYPE svg PUBLIC "-//W3C//DTD SVG 1.1//EN" "http://www.w3.org/Graphics/SVG/1.1/DTD/svg11.dtd">
<svg version="1.1" id="icon-social-pinterest__H20" xmlns="http://www.w3.org/2000/svg" xmlns:xlink="http://www.w3.org/1999/xlink" x="0px" y="0px" viewBox="0 0 16 20" style="enable-background:new 0 0 16 20;" xml:space="preserve">
	<style type="text/css">
		.color {fill: #000000;}
	</style>
	<path class="color" d="M6.6,13.2C6.1,16,5.4,18.7,3.4,20C2.8,15.8,4.3,12.7,5,9.4c-1.2-2,0.1-5.9,2.6-4.9c3.1,1.2-2.7,7.2,1.2,8c4,0.8,5.7-6.8,3.2-9.2c-3.6-3.5-10.5-0.1-9.6,5c0.2,1.3,1.5,1.6,0.5,3.3C0.6,11.1-0.1,9.4,0,7c0.2-3.9,3.5-6.5,6.9-6.9c4.3-0.5,8.4,1.6,8.9,5.5c0.8,4.4-1.8,9.2-6.4,8.9C8.2,14.4,7.6,13.8,6.6,13.2L6.6,13.2z"/>
</svg>
