<?xml version="1.0" encoding="utf-8"?>
<!DOCTYPE svg PUBLIC "-//W3C//DTD SVG 1.1//EN" "http://www.w3.org/Graphics/SVG/1.1/DTD/svg11.dtd">
<svg version="1.1" id="icon-exit__H18" xmlns="http://www.w3.org/2000/svg" xmlns:xlink="http://www.w3.org/1999/xlink" x="0px" y="0px" viewBox="0 0 18 18" style="enable-background:new 0 0 18 18;" xml:space="preserve">
	<style type="text/css">
		.color {fill: #333333;}
	</style>
	<g transform="matrix(1.3333333,0,0,-1.3333333,0,24)">
		<g transform="scale(0.1)">
			<path class="color" d="M78.1,112.5l54.7,54.7c2.9,2.9,2.9,7.7,0,10.6c-2.9,2.9-7.7,2.9-10.6,0l-54.7-54.7l-54.7,54.7c-2.9,2.9-7.7,2.9-10.6,0c-2.9-2.9-2.9-7.7,0-10.6l54.7-54.7L2.2,57.8c-2.9-2.9-2.9-7.7,0-10.6C3.7,45.7,5.6,45,7.5,45c1.9,0,3.8,0.7,5.3,2.2l54.7,54.7l54.7-54.7c1.5-1.5,3.4-2.2,5.3-2.2s3.8,0.7,5.3,2.2c2.9,2.9,2.9,7.7,0,10.6L78.1,112.5"/>
		</g>
	</g>
</svg>