<svg id="motive" xmlns="http://www.w3.org/2000/svg" viewBox="0 0 60 60"><title>icon-exhibitor__H60</title><path d="M59,0H55a1,1,0,0,0-.19,0,1,1,0,0,0-.19.06h0L43.74,6H16.25L5.47.12h0A1,1,0,0,0,5.24,0,1,1,0,0,0,5,0H1A1,1,0,0,0,0,1V47a1,1,0,0,0,1,1H5a1,1,0,0,0,.34-.07l.07,0,.06,0L16.25,42H18a1,1,0,1,0,0-2H17V8H43V40H42a1,1,0,0,0,0,2h1.74l10.78,5.88.06,0,.07,0A1,1,0,0,0,55,48h4a1,1,0,0,0,1-1V1A1,1,0,0,0,59,0ZM6,2.68l9,4.91V40.41L6,45.32ZM4,46H2V2H4Zm41-5.59V7.59l9-4.91V45.32ZM58,46H56V2h2Z"/><path d="M30,30a5.5,5.5,0,1,0-5.5-5.5A5.51,5.51,0,0,0,30,30Zm0-9a3.5,3.5,0,1,1-3.5,3.5A3.5,3.5,0,0,1,30,21Z"/><path d="M34.81,30.53a1,1,0,0,0,0,1.41A6.94,6.94,0,0,1,37,37v7H23V37a6.94,6.94,0,0,1,2.15-5.05,1,1,0,0,0-1.38-1.44A8.93,8.93,0,0,0,21,37v7a2,2,0,0,0,2,2h2V58a2,2,0,0,0,2,2h6a2,2,0,0,0,2-2V46h2a2,2,0,0,0,2-2V37a8.92,8.92,0,0,0-2.78-6.5A1,1,0,0,0,34.81,30.53Z"/></svg>