<?xml version="1.0" encoding="utf-8"?>
<!-- Generator: Adobe Illustrator 21.1.0, SVG Export Plug-In . SVG Version: 6.00 Build 0)  -->
<svg version="1.1" id="motive" xmlns="http://www.w3.org/2000/svg" xmlns:xlink="http://www.w3.org/1999/xlink" x="0px" y="0px"
	 viewBox="0 0 60 60" style="enable-background:new 0 0 60 60;" xml:space="preserve">
<title>icon-exhibitor-search__H60</title>
<path d="M1,1L1,1L1,1z M55,1L55,1z M54.9,1L44,7L54.9,1z M5.1,1L16,7l0,0L5.1,1z M56,1L56,1z"/>
<path d="M59,0h-4c-0.1,0-0.1,0-0.2,0c-0.1,0-0.1,0-0.2,0.1l0,0L43.7,6H16.3L5.5,0.1l0,0C5.4,0.1,5.3,0,5.2,0C5.2,0,5.1,0,5,0H1
	C0.4,0,0,0.4,0,1v46c0,0.6,0.4,1,1,1h4c0.1,0,0.2,0,0.3-0.1l0,0l7.1-4c0.5-0.3,0.6-0.9,0.4-1.4c-0.3-0.5-0.9-0.6-1.4-0.4L6,45.3V2.7
	l9,4.9V26c0,0.6,0.4,1,1,1c0.6,0,1-0.4,1-1V8h26v18c0,0.6,0.4,1,1,1s1-0.4,1-1V7.6l9-4.9v42.6l-5.5-3.2C48.3,42,48.2,42,48,42
	c-0.6,0-1,0.4-1,1c0,0.4,0.2,0.7,0.5,0.9l7.2,4c0.1,0.1,0.2,0.1,0.3,0.1h4c0.6,0,1-0.4,1-1V1C60,0.4,59.6,0,59,0z M56,46V2h2v44H56z
	 M2,46V2h2v44H2z"/>
<path d="M47.4,59c-0.5,0-1-0.2-1.3-0.5l-7.8-7.8L37.6,51c-6.8,4.2-15.8,2.1-20-4.7s-2.1-15.8,4.7-20s15.8-2.1,20,4.7
	c3.2,5.1,2.9,11.6-0.7,16.4L41,48.1l7.7,7.7c0.8,0.7,0.8,1.9,0.1,2.6C48.5,58.8,48,59,47.4,59z M30,26.2c-6.9,0-12.5,5.6-12.5,12.5
	c0,6.9,5.6,12.5,12.5,12.5s12.5-5.6,12.5-12.5c0,0,0,0,0,0C42.5,31.8,36.9,26.3,30,26.2z"/>
<path d="M43.5,38.7L43.5,38.7 M16.5,38.7c0,7.5,6,13.5,13.5,13.5c0,0,0,0,0,0l0,0C22.5,52.2,16.5,46.2,16.5,38.7
	C16.5,38.7,16.5,38.7,16.5,38.7 M43.5,38.7L43.5,38.7 M43.5,38.7L43.5,38.7 M43.5,38.7L43.5,38.7 M43.5,38.7L43.5,38.7 M43.5,38.7
	L43.5,38.7 M43.5,38.7L43.5,38.7 M43.5,38.7L43.5,38.7 M43.5,38.7L43.5,38.7 M43.5,38.7L43.5,38.7 M43.5,38.7L43.5,38.7 M43.5,38.7
	L43.5,38.7 M43.5,38.7L43.5,38.7 M43.5,38.7L43.5,38.7 M43.5,38.7L43.5,38.7 M43.5,38.7L43.5,38.7 M43.5,38.7L43.5,38.7 M43.5,38.7
	L43.5,38.7 M43.5,38.7L43.5,38.7 M43.5,38.7L43.5,38.7 M43.5,38.7L43.5,38.7 M43.5,38.7L43.5,38.7 M43.5,38.7L43.5,38.7 M43.5,38.7
	L43.5,38.7 M40.5,47l-0.7,0.9l1.2,1.2l7.1,7.1c0.3,0.3,0.3,0.9,0,1.2c-0.3,0.3-0.8,0.3-1.2,0l-7.3-7.3l-1.1-1.1l-0.9,0.5
	C38.7,48.9,39.7,48,40.5,47 M30,52.2L30,52.2 M30,52.2L30,52.2 M30,23.2c-8.5,0-15.5,6.9-15.5,15.4s6.9,15.5,15.4,15.5
	c2.9,0,5.8-0.8,8.2-2.3l7.3,7.3c1.3,0.9,3.1,0.7,4-0.6c0.7-1,0.7-2.4,0-3.4L42.3,48c5.1-6.8,3.8-16.5-3-21.6
	C36.6,24.3,33.4,23.2,30,23.2L30,23.2z M30,50.2c-6.3,0-11.5-5.1-11.5-11.5S23.6,27.3,30,27.2c6.3,0,11.5,5.1,11.5,11.5c0,0,0,0,0,0
	C41.5,45.1,36.3,50.2,30,50.2z"/>
</svg>
