<?xml version="1.0" encoding="utf-8"?>
<!DOCTYPE svg PUBLIC "-//W3C//DTD SVG 1.1//EN" "http://www.w3.org/Graphics/SVG/1.1/DTD/svg11.dtd">
<svg version="1.1" id="icon-counterpart__H18" xmlns="http://www.w3.org/2000/svg" xmlns:xlink="http://www.w3.org/1999/xlink" x="0px" y="0px" viewBox="0 0 18 18" style="enable-background:new 0 0 18 18;" xml:space="preserve">
	<style type="text/css">
		.color {fill: #333333;}
	</style>
	<g transform="matrix(1.3333333,0,0,-1.3333333,0,24)">
		<g transform="scale(0.1)">
			<path class="color" d="M75,105c8.3,0,15,6.7,15,15v45c0,8.3-6.7,15-15,15H15c-8.3,0-15-6.7-15-15v-45c0-8.3,6.7-15,15-15V90c0-2.8,1.6-5.4,4.1-6.7c1.1-0.5,2.2-0.8,3.4-0.8c1.6,0,3.2,0.5,4.5,1.5l28,21H75"/>
			<path class="color" d="M120,142.5h-15c-4.1,0-7.5-3.4-7.5-7.5c0-4.1,3.4-7.5,7.5-7.5h15v-45h-7.5c-4.1,0-7.5-3.4-7.5-7.5v-7.5L87,81c-1.3,1-2.9,1.5-4.5,1.5H60v2c0,4.1-3.4,7.5-7.5,7.5S45,88.6,45,84.5v-2c0-8.3,6.7-15,15-15h20l28-21c1.3-1,2.9-1.5,4.5-1.5c1.1,0,2.3,0.3,3.4,0.8c2.5,1.3,4.1,3.9,4.1,6.7v15c8.3,0,15,6.7,15,15v45C135,135.8,128.3,142.5,120,142.5"/>
		</g>
	</g>
</svg>