<svg id="motive" xmlns="http://www.w3.org/2000/svg" viewBox="0 0 18 18"><title>icon-website__H18</title><path d="M5.0713,18.002A4.9839,4.9839,0,0,1,1.5361,16.54l-.0693-.0684a5.0078,5.0078,0,0,1-.0024-7.0742l.8364-.8437a1,1,0,1,1,1.42,1.4082l-.8394.8467a3.0054,3.0054,0,0,0-.0029,4.2461l.0693.0684a3.0033,3.0033,0,0,0,4.2451.0029L10.1284,12.19a3.0045,3.0045,0,0,0,0-4.2432l-.0713-.0713A3.067,3.067,0,0,0,9.57,7.48,1,1,0,0,1,10.665,5.8066a5.0231,5.0231,0,0,1,.8071.6563l.07.07a5.0064,5.0064,0,0,1,0,7.0713L8.6069,16.54A4.9842,4.9842,0,0,1,5.0713,18.002Z"/><path d="M7.8711,12.3691a.9965.9965,0,0,1-.5464-.1631,5.0646,5.0646,0,0,1-.8062-.6553l-.0713-.0713a5.0064,5.0064,0,0,1,0-7.0713L9.3828,1.4727a5.0067,5.0067,0,0,1,7.0708,0l.0693.0684a5.0078,5.0078,0,0,1,.0024,7.0742l-.8364.8428A1,1,0,1,1,14.269,8.05l.8394-.8457a3.0054,3.0054,0,0,0,.0029-4.2461L15.042,2.89a3.006,3.006,0,0,0-4.2451-.0029L7.8613,5.8223a3.0045,3.0045,0,0,0,0,4.2432l.0713.0713a3.0469,3.0469,0,0,0,.4868.3955,1,1,0,0,1-.5483,1.8369Z"/><path d="M5.0713,18.002A4.9839,4.9839,0,0,1,1.5361,16.54l-.0693-.0684a5.0078,5.0078,0,0,1-.0024-7.0742l.8364-.8437a1,1,0,1,1,1.42,1.4082l-.8394.8467a3.0054,3.0054,0,0,0-.0029,4.2461l.0693.0684a3.0033,3.0033,0,0,0,4.2451.0029L10.1284,12.19a3.0045,3.0045,0,0,0,0-4.2432l-.0713-.0713A3.067,3.067,0,0,0,9.57,7.48,1,1,0,0,1,10.665,5.8066a5.0231,5.0231,0,0,1,.8071.6563l.07.07a5.0064,5.0064,0,0,1,0,7.0713L8.6069,16.54A4.9842,4.9842,0,0,1,5.0713,18.002Z"/><path d="M7.8711,12.3691a.9965.9965,0,0,1-.5464-.1631,5.0646,5.0646,0,0,1-.8062-.6553l-.0713-.0713a5.0064,5.0064,0,0,1,0-7.0713L9.3828,1.4727a5.0067,5.0067,0,0,1,7.0708,0l.0693.0684a5.0078,5.0078,0,0,1,.0024,7.0742l-.8364.8428A1,1,0,1,1,14.269,8.05l.8394-.8457a3.0054,3.0054,0,0,0,.0029-4.2461L15.042,2.89a3.006,3.006,0,0,0-4.2451-.0029L7.8613,5.8223a3.0045,3.0045,0,0,0,0,4.2432l.0713.0713a3.0469,3.0469,0,0,0,.4868.3955,1,1,0,0,1-.5483,1.8369Z"/></svg>