<?xml version="1.0" encoding="utf-8"?>
<!DOCTYPE svg PUBLIC "-//W3C//DTD SVG 1.1//EN" "http://www.w3.org/Graphics/SVG/1.1/DTD/svg11.dtd">
<svg version="1.1" id="icon-social-linkedin__H20" xmlns="http://www.w3.org/2000/svg" xmlns:xlink="http://www.w3.org/1999/xlink" x="0px" y="0px" viewBox="0 0 20 20" style="enable-background:new 0 0 20 20;" xml:space="preserve">
	<style type="text/css">
		.color {fill: #000000;}
	</style>
	<path class="color" d="M0.1,19.9h4.4V6.6H0.1V19.9z M2.4,0C1.1,0,0,1.1,0,2.4s1.1,2.4,2.4,2.4s2.4-1.1,2.4-2.4C4.8,1.1,3.8,0,2.4,0z M14.9,6.3c-2.1,0-3.5,1.1-4,2.2h-0.1V6.7H6.8V20H11v-6.6c0-1.8,0.3-3.4,2.6-3.4c2.2,0,2.3,2,2.3,3.6V20H20v-7.3C20,9.1,19.2,6.3,14.9,6.3z"/>
</svg>
