<?xml version="1.0" encoding="utf-8"?>
<!DOCTYPE svg PUBLIC "-//W3C//DTD SVG 1.1//EN" "http://www.w3.org/Graphics/SVG/1.1/DTD/svg11.dtd">
<svg version="1.1" id="icon-social-google-plus__H20" xmlns="http://www.w3.org/2000/svg" xmlns:xlink="http://www.w3.org/1999/xlink" x="0px" y="0px" viewBox="0 0 21 20" style="enable-background:new 0 0 21 20;" xml:space="preserve">
	 <style type="text/css">
		.color {fill: #000000;}
	</style>
	<g transform="matrix(1.3333333,0,0,-1.3333333,0,26.666667)">
		<g transform="scale(0.1)">
			<path class="color" d="M65,143.1c-3.1-3.1-7.5-5-11.9-5c-15.6,0-22.5,20.6-22.5,31.9c0,5.6,1.2,10,3.8,12.5c2.5,3.1,7.5,5.6,11.9,5.6c14.4,0,22.5-19.4,22.5-33.1C68.7,153.4,69.4,147.5,65,143.1z M56.3,103.7L56.3,103.7c1.9,0,2.5,0,3.8,0c14.4-10,20-15,20-23.1c0-11.2-10-18.8-26.9-18.8c-19.4,0-32.5,8.7-32.5,21.2c0,12.5,11.9,16.3,15.6,17.5C45,103.7,56.3,103.7,56.3,103.7z M80,116.3l-7.5,5.6c-1.9,1.9-4.4,3.1-4.4,6.2c0,3.1,2.5,5.6,5,7.5c7.5,5.6,16.9,13.1,16.9,28.8c0,11.9-5.6,19.4-10.6,23.7h7.5l20,11.9H61.2c-6.9,0-25-1.2-38.1-11.9C15,181.3,10,171.2,10,161.3c0-15.6,11.9-31.9,34.4-31.9c1.3,0,1.9,0,3.1,0c-0.6-1.3-0.6-3.1-0.6-5c0-5,1.9-8.1,3.8-11.2c-9.4-0.6-23.7-2.5-34.4-8.7C1.2,95.6,0,83.1,0,79.4C0,65,13.8,50,43.8,50c35,0,53.1,19.4,53.1,38.1C96.9,101.9,88.1,109.4,80,116.3"/>
			<path class="color" d="M133.8,135v24.4h-12.5V135H96.9v-11.9h24.4V98.8h12.5v24.4h23.7V135H133.8"/>
		</g>
	</g>
</svg>