<?xml version="1.0" encoding="utf-8"?>
<!DOCTYPE svg PUBLIC "-//W3C//DTD SVG 1.1//EN" "http://www.w3.org/Graphics/SVG/1.1/DTD/svg11.dtd">
<svg version="1.1" id="icon-matchmaking__H60" xmlns="http://www.w3.org/2000/svg" xmlns:xlink="http://www.w3.org/1999/xlink" x="0px" y="0px" viewBox="0 0 60 60" style="enable-background:new 0 0 60 60;" xml:space="preserve">
	
	<g transform="matrix(1.3333333,0,0,-1.3333333,0,80)">
		<g transform="scale(0.1)">
			<path class="color" d="M242.1,264c-8,6.6-18.1,10.9-29.2,11.5c-9.6,0.5-18.6-1.7-26.5-6c-13.1,4.8-25.1,11.9-35.4,21c0.1,10.6,6.8,21.4,10.9,27c1,1.1,2,2.3,2.8,3.6c0.2,0.3,0.4,0.5,0.4,0.5l-0.1,0c3.3,5.3,5.1,11.7,3.6,19.1c-1.7,8.4-7.5,15.6-15.3,19.1c-4.9,2.2-9.7,2.7-14.1,2c-3.2-0.5-6.1,2-6.4,5.3c-0.3,3.3,2.1,6.1,5.4,6.4c20.8,1.6,37.9,18.2,39.5,39.6c1.5,20.2-11.1,38.1-29.5,44.1c20.1,18.8,47.1,30.5,76.7,30.5c6,0,11.9-0.6,17.7-1.5c-1.8-9.1-10-15.8-19.5-15.2c-11.1,0.6-21.6-7.1-22.7-18.2c-1.1-11.6,7.6-21.7,19.1-22.3l6.9-0.4c0,0,16.2-0.4,34.8,5c0.1,0.1,3.1,0.7,4.1,0.6c5.6-0.3,9.9-5.1,9.6-10.7c-0.3-5.6-5.1-9.9-10.7-9.6c-1.8,0.1-7.5,2-8.9,2.3c-18.9,3.5-38.5-6.5-46.6-24c-9.8-21-1.5-44.7,17.1-55.6c3.9-2.3,5.5-7,4.2-11.3c-3.1-10.3,0.8-22,10.3-27.1c12.7-6.9,27.8-0.4,32.1,12.6l2.8,8.5l4.2,12.8l10.5,31.9l-0.2,0.1c1.2,5.2,1.3,10.4,0.7,15.4l3.6-4c7.7-8.6,21.5-9.8,29.4-1.5c6.9,7.3,7.2,18.8,0.3,26.3c-6.8,7.5-6.3,18.9,0.7,26.1c8.4-15.8,13.2-33.7,13.2-52.8C337.5,318.8,296,272.2,242.1,264z M225,502.5c-70.4,0-127.5-57.1-127.5-127.5c0-70.4,57.1-127.5,127.5-127.5S352.5,304.6,352.5,375C352.5,445.4,295.4,502.5,225,502.5"/>
			<path class="color" d="M262.5,195h-210c-4.1,0-7.5,3.4-7.5,7.5v206.9l17.2-17.2c1.5-1.5,3.4-2.2,5.3-2.2c1.9,0,3.8,0.7,5.3,2.2c2.9,2.9,2.9,7.7,0,10.6l-30,30c-2.9,2.9-7.7,2.9-10.6,0l-30-30c-2.9-2.9-2.9-7.7,0-10.6c2.9-2.9,7.7-2.9,10.6,0L30,409.4V202.5c0-12.4,10.1-22.5,22.5-22.5h210c4.1,0,7.5,3.4,7.5,7.5S266.6,195,262.5,195"/>
			<path class="color" d="M187.5,555h210c4.1,0,7.5-3.4,7.5-7.5V340.6l-17.2,17.2c-2.9,2.9-7.7,2.9-10.6,0c-2.9-2.9-2.9-7.7,0-10.6l30-30c1.5-1.5,3.4-2.2,5.3-2.2c1.9,0,3.8,0.7,5.3,2.2l30,30c2.9,2.9,2.9,7.7,0,10.6c-2.9,2.9-7.7,2.9-10.6,0L420,340.6v206.9c0,12.4-10.1,22.5-22.5,22.5h-210c-4.1,0-7.5-3.4-7.5-7.5S183.4,555,187.5,555"/>
			<path class="color" d="M60,585c24.8,0,45-20.2,45-45s-20.2-45-45-45c-24.8,0-45,20.2-45,45S35.2,585,60,585z M60,480c33.1,0,60,26.9,60,60s-26.9,60-60,60c-33.1,0-60-26.9-60-60S26.9,480,60,480"/>
			<path class="color" d="M37.5,540c4.1,0,7.5,3.4,7.5,7.5s-3.4,7.5-7.5,7.5s-7.5-3.4-7.5-7.5S33.4,540,37.5,540"/>
			<path class="color" d="M82.5,540c4.1,0,7.5,3.4,7.5,7.5c0,4.1-3.4,7.5-7.5,7.5c-4.1,0-7.5-3.4-7.5-7.5C75,543.4,78.3,540,82.5,540"/>
			<path class="color" d="M37.5,530.5c-3-2.8-3.2-7.6-0.4-10.6c6.2-6.6,13.7-9.9,22.9-9.9c11,0,18.4,5.3,22.8,9.8c2.9,3,2.8,7.7-0.1,10.6c-3,2.9-7.7,2.8-10.6-0.1c-2.3-2.4-6.3-5.2-12.1-5.2c-5,0-8.6,1.5-11.9,5.1C45.2,533.1,40.5,533.3,37.5,530.5"/>
			<path class="color" d="M390,165c-24.8,0-45,20.2-45,45c0,24.8,20.2,45,45,45c24.8,0,45-20.2,45-45C435,185.2,414.8,165,390,165zM390,270c-33.1,0-60-26.9-60-60c0-33.1,26.9-60,60-60s60,26.9,60,60C450,243.1,423.1,270,390,270"/>
			<path class="color" d="M375,217.5c0,4.1-3.4,7.5-7.5,7.5c-4.1,0-7.5-3.4-7.5-7.5s3.4-7.5,7.5-7.5C371.6,210,375,213.4,375,217.5"/>
			<path class="color" d="M412.5,225c-4.1,0-7.5-3.4-7.5-7.5s3.4-7.5,7.5-7.5s7.5,3.4,7.5,7.5S416.6,225,412.5,225"/>
			<path class="color" d="M402.1,200.2c-2.3-2.4-6.3-5.2-12.1-5.2c-5,0-8.6,1.5-11.9,5.1c-2.8,3-7.6,3.2-10.6,0.4c-3-2.8-3.2-7.6-0.4-10.6c6.2-6.7,13.7-9.9,22.9-9.9c11,0,18.4,5.3,22.8,9.8c2.9,3,2.8,7.7-0.1,10.6C409.7,203.2,405,203.2,402.1,200.2"/>
		</g>
	</g>
</svg>