<svg id="motive" xmlns="http://www.w3.org/2000/svg" viewBox="0 0 18 18"><title>koelnmesse</title><path d="M9.0127.0049a9,9,0,1,0,9,9A9.01,9.01,0,0,0,9.0127.0049Zm1,15.92v-.92a1,1,0,1,0-2,0v.92a7.0052,7.0052,0,0,1-5.92-5.92h.92a1,1,0,1,0,0-2h-.92a7.0052,7.0052,0,0,1,5.92-5.92v.92a1,1,0,1,0,2,0v-.92a7.0052,7.0052,0,0,1,5.92,5.92h-.92a1,1,0,1,0,0,2h.92A7.0052,7.0052,0,0,1,10.0127,15.925Z"/><path d="M5.5127,13.4639A1,1,0,0,1,4.5566,12.17l1.16-3.7734A3.4859,3.4859,0,0,1,8.4609,5.7l3.8047-1.1523a1,1,0,0,1,1.2451,1.251L12.31,9.7061a3.465,3.465,0,0,1-2.6885,2.61L5.79,13.4248A1.0012,1.0012,0,0,1,5.5127,13.4639Zm5.5371-6.46-2.1064.6348A1.5436,1.5436,0,0,0,7.667,8.84a.824.824,0,0,1-.0244.1L7.0117,10.99l2.1289-.6143A1.5373,1.5373,0,0,0,10.376,9.2031Z"/></svg>