<svg id="motive" xmlns="http://www.w3.org/2000/svg" viewBox="0 0 30 30"><title>icon-attention__H30</title><path d="M19.2366,12.3541l-4.798,5.67-2.7315-2.7315a1,1,0,0,0-1.4142,1.4142l3.5,3.5a1,1,0,0,0,1.47-.0612l5.5-6.5a1,1,0,1,0-1.5267-1.2919Z"/><path d="M28.9985,6.3811,29,6.3185a1.9416,1.9416,0,0,0-.5209-1.3228A2.0062,2.0062,0,0,0,27.2319,4.37h0a14.4489,14.4489,0,0,1-4.6594-1.58C21.0485,2.0336,19.64,1.1863,18.3742.6655a8.8218,8.8218,0,0,0-6.7235,0h0c-1.2732.5239-2.6857,1.3838-4.2141,2.1507a14.2614,14.2614,0,0,1-4.668,1.598h0a1.9691,1.9691,0,0,0-1.7657,1.93h.0018c0,.013-.0054.0262-.0052.039a41.698,41.698,0,0,0,.6531,7.1791h0l.0021.0112.0027.0166h0a28.6326,28.6326,0,0,0,1.99,7.1638A14.5668,14.5668,0,0,0,8.5718,26.94a27.1571,27.1571,0,0,0,6.0632,2.991A.9891.9891,0,0,0,15,30h0a.9891.9891,0,0,0,.3644-.0688c2.7391-1.0753,5.5485-2.1725,7.908-4.5584a15.3181,15.3181,0,0,0,3.079-4.6182,28.6266,28.6266,0,0,0,1.9894-7.163h0l.0026-.016.0022-.012h0a41.6431,41.6431,0,0,0,.6531-7.18Zm-2.6278,6.87a26.6913,26.6913,0,0,1-1.8462,6.69,12.543,12.543,0,0,1-4.2585,5.3712,23.9469,23.9469,0,0,1-5.2681,2.6125c-2.6021-1.0211-4.9418-2.0228-6.8483-3.9571A13.3125,13.3125,0,0,1,5.4745,19.94,26.6922,26.6922,0,0,1,3.6283,13.25l-.0048-.0278q-.2916-1.5558-.45-3.319c3.3584-.5039,6.6115-2.8019,8.8549-3.7062a7.9215,7.9215,0,0,1,5.9673,0c2.2382.9023,5.483,3.13,8.8337,3.6417q-.1583,1.802-.4543,3.3843Z"/></svg>