<svg id="motive" xmlns="http://www.w3.org/2000/svg" viewBox="0 0 16 16"><title>icon-unseen__H16</title><path d="M13.35,11.94a9.15,9.15,0,0,0,2.58-3.57,1,1,0,0,0,0-.74A8.73,8.73,0,0,0,8,2a8,8,0,0,0-3.68.91L1.71.29A1,1,0,0,0,.29,1.71L2.65,4.06A9.15,9.15,0,0,0,.07,7.63a1,1,0,0,0,0,.74A8.73,8.73,0,0,0,8,14a8,8,0,0,0,3.68-.91l2.62,2.62a1,1,0,0,0,1.41-1.41ZM8,4a6.68,6.68,0,0,1,5.91,4,7.14,7.14,0,0,1-2,2.53l-6.1-6.1A6,6,0,0,1,8,4Zm0,8A6.68,6.68,0,0,1,2.09,8a7.14,7.14,0,0,1,2-2.53l6.1,6.1A6,6,0,0,1,8,12Z"/></svg>