<svg id="motive" xmlns="http://www.w3.org/2000/svg" viewBox="0 0 60 60"><title>icon-attention__H60</title><path d="M27.8055,39.4093a2,2,0,0,0,3.0019-.1868l10.813-14a2,2,0,1,0-3.1656-2.4451L29.0362,34.972l-5.6015-5.64a2,2,0,0,0-2.8381,2.8187Z"/><path d="M51.1516,23.032a1,1,0,0,0-1.1254.8564c-1.4082,10.37-4.0867,16.4942-7.542,20.5143-3.3724,3.9243-7.576,5.9462-12.4073,7.8864-4.8751-1.9473-9.1159-3.97-12.5153-7.9108-3.4686-4.02-6.157-10.1437-7.5708-20.5133a1,1,0,1,0-1.9817.27c1.44,10.5845,4.2308,17.1366,8.0382,21.55s8.5414,6.58,13.5837,8.582c.026.01.0529.0063.0792.0143a.9955.9955,0,0,0,.7576.0087c5.023-2.0024,9.74-4.17,13.5331-8.5834s6.5723-10.9648,8.007-21.5491A1,1,0,0,0,51.1516,23.032Z"/><path d="M58.0439,12.1348l0-.0071v-.0019l.002-.1094a2.944,2.944,0,0,0-.7957-2.0118,3.0915,3.0915,0,0,0-1.92-.96,31.0828,31.0828,0,0,1-10.0377-3.38c-3.2053-1.5886-6.1406-3.3426-8.6473-4.3668h0A17.3969,17.3969,0,0,0,30.0722,0L30.049.0011A16.1369,16.1369,0,0,0,28.4333.08a17.5018,17.5018,0,0,0-4.935,1.2186c-2.5162,1.0288-5.46,2.8084-8.6752,4.42A30.6839,30.6839,0,0,1,4.7617,9.1374a3.0725,3.0725,0,0,0-1.9084.95,2.9464,2.9464,0,0,0-.7844,1.8494l-.0038-.0007-.0015.0078-.0171.1957A85.0364,85.0364,0,0,0,3.3936,26.8832h0A58.1515,58.1515,0,0,0,7.452,41.4846a29.1035,29.1035,0,0,0,9.87,12.3775c3.8474,2.7342,8.0843,4.3989,12.36,6.07A.987.987,0,0,0,30.0454,60h.001a.987.987,0,0,0,.3636-.0684c5.6951-2.226,11.3456-4.4479,16.0508-9.1966S54.8093,38.787,56.7,26.87A85.0284,85.0284,0,0,0,58.0449,12.14ZM54.7267,26.5443A56.2183,56.2183,0,0,1,50.8126,40.67,27.0789,27.0789,0,0,1,41.61,52.2324a52.2087,52.2087,0,0,1-11.5638,5.6935C24.4788,55.7526,19.3,53.6226,15.0514,49.3276a28.6441,28.6441,0,0,1-5.7733-8.6586A56.22,56.22,0,0,1,5.3641,26.5419l-.0048-.0277C4.9678,24.429,4.66,22.2224,4.44,19.8777c7.3248-.7155,14.5079-5.92,19.389-7.91a16.2728,16.2728,0,0,1,12.3936,0C41.1146,13.9623,48.3189,19.08,55.66,19.79c-.2206,2.3789-.532,4.6147-.9288,6.7269Z"/></svg>