<svg id="motive" xmlns="http://www.w3.org/2000/svg" viewBox="0 0 60 60"><title>icon-contact__H60</title><path d="M52,0H15a3,3,0,0,0-3,3V5a1,1,0,0,0,2,0V3a1,1,0,0,1,1-1H52a1,1,0,0,1,1,1V49a1,1,0,0,1-1,1H50a1,1,0,0,0,0,2h2a3,3,0,0,0,3-3V3A3,3,0,0,0,52,0Z"/><path d="M44,8H7a3,3,0,0,0-3,3V57a3,3,0,0,0,3,3H44a3,3,0,0,0,3-3V11A3,3,0,0,0,44,8ZM6,57V11a1,1,0,0,1,1-1h5V58H7A1,1,0,0,1,6,57Zm39,0a1,1,0,0,1-1,1H14V10H44a1,1,0,0,1,1,1Z"/><path d="M37,42H22a1,1,0,0,0,0,2H37a1,1,0,0,0,0-2Z"/><path d="M37,46H22a1,1,0,0,0,0,2H37a1,1,0,0,0,0-2Z"/><path d="M37,50H22a1,1,0,0,0,0,2H37a1,1,0,0,0,0-2Z"/><path d="M35.64,32.78a5.57,5.57,0,0,0-4.18-5.44,4.57,4.57,0,1,0-4.62,0,5.59,5.59,0,0,0-4.2,5.43v.72h13Z"/></svg>