<?xml version="1.0" encoding="utf-8"?>
<!-- Generator: Adobe Illustrator 21.1.0, SVG Export Plug-In . SVG Version: 6.00 Build 0)  -->
<svg version="1.1" id="motive" xmlns="http://www.w3.org/2000/svg" xmlns:xlink="http://www.w3.org/1999/xlink" x="0px" y="0px"
	 viewBox="0 0 60 60" style="enable-background:new 0 0 60 60;" xml:space="preserve">
<title>icon-stand-construction__H60</title>
<path d="M59,0h-4h-0.2c-0.1,0-0.1,0-0.2,0.1l0,0L43.8,6H16.3L5.5,0.1l0,0C5.4,0.1,5.3,0,5.2,0C5.2,0,5.1,0,5,0H1C0.4,0,0,0.4,0,1v46
	c0,0.6,0.4,1,1,1h4c0.1,0,0.2,0,0.3-0.1l10.1-5.5c0.5-0.3,0.7-0.9,0.4-1.4s-0.9-0.7-1.4-0.4L6,45.3V2.7l9,4.9V21c0,0.6,0.4,1,1,1
	c0.6,0,1-0.4,1-1V8h26v9c0,0.6,0.4,1,1,1s1-0.4,1-1V7.6l9-4.9v42.6l-9.5-5.2c-0.5-0.3-1.1-0.1-1.4,0.4c-0.3,0.5-0.1,1.1,0.4,1.4l0,0
	l11.1,6C54.7,48,54.8,48,55,48h4c0.6,0,1-0.4,1-1V1C60,0.4,59.6,0,59,0z M4,46H2V2h2V46z M58,46h-2V2h2V46z"/>
<path d="M36,41.3l13.1-13.1c1.2-1.2,1.2-3.1,0-4.2L46,20.9c-1.2-1.2-3.1-1.2-4.2,0L28.7,34l-3.8-3.8c2.1-2.6,2-6.3-0.1-8.9
	c-0.9-1.2-2.6-1.4-3.8-0.4c-0.1,0.1-0.1,0.1-0.2,0.2l-9,9c-1.2,1.2-1.2,3.1,0,4.2l2.4,2.4c1.2,1.2,3.1,1.2,4.2,0l1.7-1.7l3.8,3.8
	L10.9,51.8c-1.2,1.2-1.2,3.1,0,4.2l3.1,3.1c1.2,1.2,3.1,1.2,4.2,0L31.3,46l12.1,12.7c0.7,0.8,1.7,1.2,2.7,1.3h0.1
	c2.1,0,3.8-1.7,3.8-3.8c0-1.1-0.5-2.1-1.2-2.8L36,41.3z M17,35.2c-0.4,0.4-1,0.4-1.4,0c0,0,0,0,0,0l-2.4-2.4c-0.4-0.4-0.4-1,0-1.4
	l8.9-9c0.1-0.1,0.3-0.2,0.5-0.2l0,0c0.2,0,0.4,0.1,0.5,0.3c1.7,1.9,1.6,4.7-0.1,6.6l-0.4,0.4l-3.2,3.3L17,35.2z M16.7,57.7
	c-0.4,0.4-1,0.4-1.4,0l-3.1-3.1c-0.4-0.4-0.4-1,0-1.4l31-30.9c0.4-0.4,1-0.4,1.4,0l3.1,3.1c0.4,0.4,0.4,1,0,1.4l-4.2,4.1L42.6,30
	c-0.4-0.4-1-0.5-1.4-0.1c-0.4,0.4-0.5,1-0.1,1.4c0,0,0.1,0.1,0.1,0.1l0.9,0.9l-2.8,2.8l-0.9-0.9c-0.5-0.3-1.1-0.2-1.4,0.2
	c-0.2,0.4-0.2,0.8,0,1.2l0.9,0.9l-2.8,2.8l-0.9-0.9c-0.4-0.4-1-0.5-1.4-0.1s-0.5,1-0.1,1.4c0,0,0.1,0.1,0.1,0.1l0.9,0.9l-2.8,2.8
	l-0.9-0.9c-0.4-0.4-1.1-0.3-1.4,0.1c-0.3,0.4-0.3,0.9,0,1.3l0.9,0.9l-2.9,2.8L25.6,47c-0.4-0.4-1.1-0.3-1.4,0.1
	c-0.3,0.4-0.3,0.9,0,1.3l0.9,0.9l-2.8,2.8l-0.9-0.9C21,50.9,20.3,51,20,51.5c-0.3,0.3-0.3,0.8,0,1.2l0.9,0.9L16.7,57.7z"/>
</svg>
