<?xml version="1.0" encoding="utf-8"?>
<!-- Generator: Adobe Illustrator 15.0.0, SVG Export Plug-In . SVG Version: 6.00 Build 0)  -->
<!DOCTYPE svg PUBLIC "-//W3C//DTD SVG 1.1//EN" "http://www.w3.org/Graphics/SVG/1.1/DTD/svg11.dtd">
<svg version="1.1" id="icon-social-linkedin-small" xmlns="http://www.w3.org/2000/svg" xmlns:xlink="http://www.w3.org/1999/xlink"
	 x="0px" y="0px" width="595.279px" height="595.281px" viewBox="0 123.305 595.279 595.281"
	 enable-background="new 0 123.305 595.279 595.281" xml:space="preserve">
<path fill="#FFFFFF" d="M2.977,715.609h130.961V319.748H2.977V715.609z M71.434,123.305C32.74,123.305,0,156.045,0,194.739
	c0,38.693,32.74,71.434,71.434,71.434s71.434-32.741,71.434-71.434C142.867,156.045,113.103,123.305,71.434,123.305z
	 M443.484,310.818c-62.505,0-104.174,32.74-119.056,65.48h-2.977v-53.575H202.396v395.862h125.008V522.142
	c0-53.574,8.93-101.197,77.387-101.197c65.48,0,68.457,59.527,68.457,107.15v190.49H595.28V501.308
	C595.28,394.157,571.469,310.818,443.484,310.818z"/>
</svg>
