<?xml version="1.0" encoding="utf-8"?>
<!DOCTYPE svg PUBLIC "-//W3C//DTD SVG 1.1//EN" "http://www.w3.org/Graphics/SVG/1.1/DTD/svg11.dtd">
<svg version="1.1" id="icon-social-instagram__H20" xmlns="http://www.w3.org/2000/svg" xmlns:xlink="http://www.w3.org/1999/xlink" x="0px" y="0px" viewBox="0 0 20 20" style="enable-background:new 0 0 20 20;" xml:space="preserve">
	<style type="text/css">
		.color {fill: #000000;}
	</style>
	<g transform="matrix(1.3333333,0,0,-1.3333333,0,26.666667)">
		<g transform="scale(0.1)">
			<path class="color" d="M124,165c0-5-4-9-9-9c-5,0-9,4-9,9c0,5,4,9,9,9C120,174,124,170,124,165z M75,100c-13.8,0-25,11.2-25,25c0,13.8,11.2,25,25,25c13.8,0,25-11.2,25-25C100,111.2,88.8,100,75,100z M75,163.5c-21.3,0-38.5-17.2-38.5-38.5c0-21.3,17.3-38.5,38.5-38.5c21.3,0,38.5,17.2,38.5,38.5C113.5,146.3,96.3,163.5,75,163.5z M75,186.5c20,0,22.4-0.1,30.3-0.5c7.3-0.3,11.3-1.6,13.9-2.6c3.5-1.4,6-3,8.6-5.6c2.6-2.6,4.2-5.1,5.6-8.6c1-2.6,2.2-6.6,2.6-13.9c0.4-7.9,0.4-10.3,0.4-30.3c0-20-0.1-22.4-0.5-30.3c-0.3-7.3-1.6-11.3-2.6-13.9c-1.4-3.5-3-6-5.6-8.6c-2.6-2.6-5.1-4.2-8.6-5.6c-2.6-1-6.6-2.2-13.9-2.6C97.4,63.6,95,63.5,75,63.5c-20,0-22.4,0.1-30.3,0.5c-7.3,0.3-11.3,1.6-13.9,2.6c-3.5,1.4-6,3-8.6,5.6c-2.6,2.6-4.2,5.1-5.6,8.6c-1,2.6-2.2,6.6-2.6,13.9c-0.3,7.9-0.4,10.3-0.4,30.3c0,20,0.1,22.4,0.5,30.3c0.3,7.3,1.6,11.3,2.6,13.9c1.4,3.5,3,6,5.6,8.6c2.6,2.6,5.1,4.2,8.6,5.6c2.6,1,6.6,2.2,13.9,2.6C52.6,186.4,55,186.5,75,186.5z M75,200c-20.4,0-22.9-0.1-30.9-0.4c-8-0.4-13.4-1.6-18.2-3.5c-4.9-1.9-9.1-4.5-13.3-8.7c-4.2-4.2-6.7-8.3-8.7-13.3c-1.9-4.8-3.1-10.2-3.5-18.2C0.1,147.9,0,145.4,0,125c0-20.4,0.1-22.9,0.5-30.9c0.4-8,1.6-13.4,3.5-18.2c1.9-4.9,4.5-9.1,8.7-13.3c4.2-4.2,8.3-6.8,13.3-8.7c4.8-1.9,10.2-3.1,18.2-3.5c8-0.4,10.5-0.4,30.9-0.4c20.4,0,22.9,0.1,30.9,0.4c8,0.4,13.4,1.6,18.2,3.5c4.9,1.9,9.1,4.5,13.3,8.7c4.2,4.2,6.8,8.3,8.7,13.3c1.9,4.8,3.1,10.2,3.5,18.2c0.4,8,0.4,10.5,0.4,30.9c0,20.4-0.1,22.9-0.4,30.9c-0.4,8-1.6,13.4-3.5,18.2c-1.9,4.9-4.5,9.1-8.6,13.3c-4.2,4.2-8.3,6.7-13.3,8.7c-4.8,1.9-10.2,3.1-18.2,3.5C97.9,199.9,95.4,200,75,200"/>
		</g>
	</g>
</svg>