<svg id="motive" xmlns="http://www.w3.org/2000/svg" viewBox="0 0 60 60"><title>icon-advertising-space__H60</title><path d="M45,0H15a3,3,0,0,0-3,3V47a3,3,0,0,0,3,3h7.31L19,56H16a2,2,0,0,0,0,4H44a2,2,0,0,0,0-4H41.25l-2.7-6H45a3,3,0,0,0,3-3V3A3,3,0,0,0,45,0ZM39.05,56H21.29l3.3-6H36.35ZM46,47a1,1,0,0,1-1,1H15a1,1,0,0,1-1-1V3a1,1,0,0,1,1-1H45a1,1,0,0,1,1,1Z"/><path d="M31.49,24.58l5.22-5.38a1,1,0,0,0-1.44-1.39l-5.2,5.36-5.37-5.37a1,1,0,0,0-1.41,1.41l5.39,5.39-5.05,5.2a1,1,0,0,0,1.44,1.39l5-5.18,5.19,5.19a1,1,0,0,0,1.41-1.41Z"/><path d="M42,4H18a2,2,0,0,0-2,2V44a2,2,0,0,0,2,2H42a2,2,0,0,0,2-2V6A2,2,0,0,0,42,4ZM18,44V6H42V44Z"/></svg>