<svg id="motive" xmlns="http://www.w3.org/2000/svg" viewBox="0 0 18 18"><title>icon-location__H18</title><path d="M8.9419,18H8.9326a1.9467,1.9467,0,0,1-1.6533-.9242L2.9486,10.52a.9933.9933,0,0,1-.0854-.1583A7.0066,7.0066,0,0,1,13.9785,2.0626,6.8877,6.8877,0,0,1,16,7.01h0a7.0824,7.0824,0,0,1-.9216,3.4448,1.0143,1.0143,0,0,1-.083.1485l-4.4176,6.5135A1.933,1.933,0,0,1,8.9419,18ZM4.6746,9.5052l4.2873,6.49,4.3195-6.4275c.0063-.0117.0127-.0234.02-.0342A5.1481,5.1481,0,0,0,14,6.9963a4.9068,4.9068,0,0,0-1.438-3.522,5,5,0,0,0-3.53-1.4723A5.0593,5.0593,0,0,0,5.4884,3.4411a4.99,4.99,0,0,0-.8313,6.0319ZM15,7.0031h0Z"/><circle cx="9.0102" cy="7.0035" r="2.0009" transform="translate(1.943 15.9639) rotate(-89.5938)"/><path d="M8.9419,18H8.9326a1.9467,1.9467,0,0,1-1.6533-.9242L2.9486,10.52a.9933.9933,0,0,1-.0854-.1583A6.9978,6.9978,0,0,1,13.9565,2.0587,6.87,6.87,0,0,1,16,7.01h0a7.0824,7.0824,0,0,1-.9216,3.4448,1.0143,1.0143,0,0,1-.083.1485l-4.4176,6.5135A1.933,1.933,0,0,1,8.9419,18ZM4.6746,9.5052l4.2873,6.49,4.3195-6.4275c.0063-.0117.0127-.0234.02-.0342A5.1481,5.1481,0,0,0,14,6.9963a4.8829,4.8829,0,0,0-1.4537-3.5191,5.0228,5.0228,0,0,0-7.074-.0391,5.0176,5.0176,0,0,0-.8157,6.0348ZM15,7.0031h0Z"/><circle cx="9.006" cy="6.9993" r="1.9966" transform="translate(1.943 15.9554) rotate(-89.5938)"/></svg>