<svg id="motive" xmlns="http://www.w3.org/2000/svg" viewBox="0 0 60 60"><title>icon-accreditation__H60</title><path d="M37,41.11A6.79,6.79,0,0,0,30,34a6.83,6.83,0,0,0-7,7.11V42H37Z"/><polygon points="30.02 34 30.03 34 30.04 34 30.02 34"/><circle cx="30" cy="30" r="4" transform="translate(-12.43 30) rotate(-45)"/><path d="M21,47H39a1,1,0,0,0,0-2H21a1,1,0,0,0,0,2Z"/><path d="M43,50H17a1,1,0,0,0,0,2H43a1,1,0,0,0,0-2Z"/><path d="M47,6H31V1a1,1,0,0,0-2,0V6H13a3,3,0,0,0-3,3V57a3,3,0,0,0,3,3H47a3,3,0,0,0,3-3V9A3,3,0,0,0,47,6ZM29,10.18V12a1,1,0,0,0,2,0V10.18a3,3,0,1,1-2,0ZM47,58H13a1,1,0,0,1-1-1V20H48V57A1,1,0,0,1,47,58Z"/></svg>