<svg id="motive" xmlns="http://www.w3.org/2000/svg" viewBox="0 0 18 18"><title>icon-fax__H18</title><path d="M5.77,14.32,3.66,12.21a1.5,1.5,0,0,1,0-2.12h0A1.47,1.47,0,0,0,3.66,8l0,0A1.47,1.47,0,0,0,1.54,8l-.37.37a4,4,0,0,0,0,5.66L4,16.82a4,4,0,0,0,5.66,0l.37-.37a1.47,1.47,0,0,0,0-2.08L10,14.32a1.47,1.47,0,0,0-2.08,0h0A1.5,1.5,0,0,1,5.77,14.32Z"/><path d="M15,18H13a1,1,0,0,1,0-2h2a1,1,0,0,0,1-1V3a1,1,0,0,0-1-1H6A1,1,0,0,0,5,3V5A1,1,0,0,1,3,5V3A3,3,0,0,1,6,0h9a3,3,0,0,1,3,3V15A3,3,0,0,1,15,18Z"/><path d="M8,7A1,1,0,0,1,8,5h5a1,1,0,0,1,0,2H8Z"/><path d="M8,11A1,1,0,0,1,8,9l5,0h0a1,1,0,0,1,0,2L8,11Z"/><path d="M5.77,14.32,3.66,12.21a1.5,1.5,0,0,1,0-2.12h0A1.47,1.47,0,0,0,3.66,8l0,0A1.47,1.47,0,0,0,1.54,8l-.37.37a4,4,0,0,0,0,5.66L4,16.82a4,4,0,0,0,5.66,0l.37-.37a1.47,1.47,0,0,0,0-2.08L10,14.32a1.47,1.47,0,0,0-2.08,0h0A1.5,1.5,0,0,1,5.77,14.32Z"/><path d="M15,18H13a1,1,0,0,1,0-2h2a1,1,0,0,0,1-1V3a1,1,0,0,0-1-1H6A1,1,0,0,0,5,3V5A1,1,0,0,1,3,5V3A3,3,0,0,1,6,0h9a3,3,0,0,1,3,3V15A3,3,0,0,1,15,18Z"/><path d="M13,7H8A1,1,0,0,1,8,5h5a1,1,0,0,1,0,2Z"/><path d="M8,11A1,1,0,0,1,8,9h5a1,1,0,0,1,0,2H8Z"/></svg>