<svg id="motive" xmlns="http://www.w3.org/2000/svg" viewBox="0 0 16 16"><title>icon-contact__H16</title><path d="M7.89,0A8.05,8.05,0,0,0,0,7.89a8,8,0,0,0,11.43,7.34,1,1,0,0,0-.86-1.81A6,6,0,0,1,2,7.91,6.11,6.11,0,0,1,7.92,2,6,6,0,0,1,14,7.64a2.5,2.5,0,0,1,0,.59A1.46,1.46,0,0,1,12.5,9.44a1,1,0,0,1-1-1v-3a1,1,0,0,0-1-1,1,1,0,0,0-.84.5A3.45,3.45,0,0,0,8,4.5a3.5,3.5,0,1,0,2.38,6.05,3,3,0,0,0,2.12.88,3.46,3.46,0,0,0,3.41-2.85A4.47,4.47,0,0,0,16,7.52,8,8,0,0,0,7.89,0ZM8,9.5A1.5,1.5,0,1,1,9.5,8,1.5,1.5,0,0,1,8,9.5Z"/></svg>