<svg xmlns="http://www.w3.org/2000/svg" viewBox="0 0 18 18"><defs><style>.cls-1{stroke:#000;stroke-linecap:round;stroke-linejoin:round;stroke-width:2px;}.cls-2{font-size:3px;fill:#fff;font-family:MyriadPro-Regular, Myriad Pro;}.cls-3{letter-spacing:-0.0081em;}.cls-4{letter-spacing:0.0039em;}</style></defs><title>icon-favorit__H18</title><g id="motive"><path d="M14.7,18a.9892.9892,0,0,1-.38-.0753L9,15.7365,3.68,17.9247a1,1,0,0,1-1.373-1.0427L2.96,11.2692.2,7.583A1.002,1.002,0,0,1,.7256,6.0189L5.3989,4.6818,8.1616.4262a1.0376,1.0376,0,0,1,1.6768,0l2.7627,4.2555,4.6733,1.3372A1.002,1.002,0,0,1,17.8,7.583l-2.76,3.6862.6538,5.6127A1.0009,1.0009,0,0,1,14.7,18ZM9,13.652a1.0022,1.0022,0,0,1,.38.0753l4.13,1.6991-.5034-4.3215a1.0019,1.0019,0,0,1,.1934-.717l2.1279-2.8426-3.6357-1.04a.9957.9957,0,0,1-.564-.4172L9,2.81,6.8716,6.0879a.9957.9957,0,0,1-.564.4172l-3.6357,1.04L4.8,10.3879a1.0019,1.0019,0,0,1,.1934.717L4.49,15.4264l4.13-1.6991A1.0022,1.0022,0,0,1,9,13.652Z"/><path d="M14.7,18a.9892.9892,0,0,1-.38-.0753L9,15.7365,3.68,17.9247a1,1,0,0,1-1.373-1.0427L2.96,11.2692.2,7.583A1.002,1.002,0,0,1,.7256,6.0189L5.3989,4.6818,8.1616.4262a1.0376,1.0376,0,0,1,1.6768,0l2.7627,4.2555,4.6733,1.3372A1.002,1.002,0,0,1,17.8,7.583l-2.76,3.6862.6538,5.6127A1.0009,1.0009,0,0,1,14.7,18ZM9,13.652a1.0022,1.0022,0,0,1,.38.0753l4.13,1.6991-.5034-4.3215a1.0019,1.0019,0,0,1,.1934-.717l2.1279-2.8426-3.6357-1.04a.9957.9957,0,0,1-.564-.4172L9,2.81,6.8716,6.0879a.9957.9957,0,0,1-.564.4172l-3.6357,1.04L4.8,10.3879a1.0019,1.0019,0,0,1,.1934.717L4.49,15.4264l4.13-1.6991A1.0022,1.0022,0,0,1,9,13.652Z"/></g><g id="active"><polygon points="9 0.994 11.967 5.556 17 6.994 14 10.994 14.7 16.994 9 14.653 3.3 16.994 4 10.994 1 6.994 6.033 5.556 9 0.994"/><polygon class="cls-1" points="9 0.994 11.967 5.556 17 6.994 14 10.994 14.7 16.994 9 14.653 3.3 16.994 4 10.994 1 6.994 6.033 5.556 9 0.994"/></g><g id="text"><text class="cls-2"><tspan x="4.8939" y="-4.27">f</tspan><tspan class="cls-3" x="5.7699" y="-4.27">av</tspan><tspan x="8.6058" y="-4.27">o</tspan><tspan class="cls-4" x="10.2533" y="-4.27">r</tspan><tspan x="11.2464" y="-4.27">it</tspan></text></g></svg>