<?xml version="1.0" encoding="utf-8"?>
<!-- Generator: Adobe Illustrator 15.0.0, SVG Export Plug-In . SVG Version: 6.00 Build 0)  -->
<!DOCTYPE svg PUBLIC "-//W3C//DTD SVG 1.1//EN" "http://www.w3.org/Graphics/SVG/1.1/DTD/svg11.dtd">
<svg version="1.1" id="icon-social-instagram-small"
	 xmlns="http://www.w3.org/2000/svg" xmlns:xlink="http://www.w3.org/1999/xlink" x="0px" y="0px" width="595.677px"
	 height="595.28px" viewBox="0 123.305 595.677 595.28" enable-background="new 0 123.305 595.677 595.28" xml:space="preserve">
<g transform="matrix(1.3333333,0,0,-1.3333333,0,26.666667)">
	<g transform="scale(0.1)">
		<path fill="#FFFFFF" d="M3690.735-1766.527c0-148.821-119.055-267.876-267.876-267.876s-267.876,119.055-267.876,267.876
			s119.055,267.876,267.876,267.876S3690.735-1617.706,3690.735-1766.527z M2232.3-3701.183
			c-410.742,0-744.097,333.354-744.097,744.093c0,410.746,333.354,744.1,744.097,744.1s744.097-333.354,744.097-744.1
			C2976.396-3367.829,2643.042-3701.183,2232.3-3701.183z M2232.3-1811.176c-633.97,0-1145.911-511.941-1145.911-1145.914
			c0-633.966,514.915-1145.914,1145.911-1145.914c633.977,0,1145.911,511.948,1145.911,1145.914
			C3378.21-2323.117,2866.277-1811.176,2232.3-1811.176z M2232.3-1126.603c595.283,0,666.716-2.977,901.853-14.879
			c217.273-8.932,336.328-47.626,413.716-77.388c104.172-41.671,178.586-89.293,255.974-166.681
			c77.381-77.384,125.003-151.794,166.677-255.97c29.766-77.384,65.479-196.443,77.388-413.72
			c11.902-235.133,11.902-306.57,11.902-901.849s-2.974-666.72-14.883-901.842c-8.928-217.28-47.622-336.343-77.388-413.731
			c-41.667-104.165-89.29-178.579-166.677-255.967c-77.388-77.388-151.794-125.01-255.967-166.685
			c-77.388-29.751-196.443-65.479-413.723-77.373c-232.156-11.909-303.589-14.883-898.872-14.883
			c-595.276,0-666.709,2.974-901.846,14.883c-217.28,8.921-336.335,47.622-413.723,77.373
			c-104.172,41.675-178.586,89.297-255.967,166.685c-77.388,77.388-125.01,151.802-166.685,255.967
			c-29.758,77.388-65.479,196.45-77.38,413.731c-8.928,235.137-11.909,306.563-11.909,901.842
			c0,595.283,2.981,666.716,14.883,901.853c8.928,217.277,47.622,336.332,77.388,413.716
			c41.667,104.176,89.29,178.586,166.677,255.974c77.388,77.384,151.794,125.006,255.974,166.677
			c77.38,29.766,196.436,65.479,413.716,77.388C1565.59-1129.58,1637.024-1126.603,2232.3-1126.603z M2232.3-724.789
			c-607.185,0-681.592-2.977-919.71-11.906c-238.11-11.906-398.833-47.622-541.699-104.172
			c-145.847-56.55-270.857-133.938-395.867-258.948s-199.417-247.042-258.948-395.859c-56.55-142.87-92.263-303.596-104.172-541.707
			C2.975-2275.495,0.002-2349.901,0.002-2957.09s2.974-681.588,14.883-919.713c11.902-238.11,47.622-398.833,104.172-541.699
			c56.55-145.84,133.938-270.85,258.948-395.859s247.039-202.397,395.859-258.955c142.866-56.543,303.596-92.256,541.707-104.165
			s312.517-11.909,919.702-11.909s681.599,2.974,919.709,11.909c238.11,11.909,398.84,47.622,541.707,104.165
			c145.84,56.558,270.85,133.945,395.86,258.955s202.397,247.046,258.948,395.859c56.55,142.866,92.271,303.589,104.172,541.699
			c11.909,238.125,11.909,312.524,11.909,919.713s-2.981,681.595-11.909,919.709c-11.902,238.11-47.622,398.837-104.172,541.707
			c-56.55,145.84-133.938,270.85-255.967,395.859c-125.01,125.01-247.046,199.42-395.867,258.948
			c-142.866,56.55-303.589,92.267-541.707,104.172C2913.899-727.766,2839.485-724.789,2232.3-724.789"/>
	</g>
</g>
</svg>
