<svg id="motive" xmlns="http://www.w3.org/2000/svg" viewBox="0 0 18 18"><title>icon-bookmark-star__H18</title><path d="M14,0H4A1.93,1.93,0,0,0,2,2V16a2,2,0,0,0,1.09,1.74,2.37,2.37,0,0,0,2.4-.11L8.8,15.42a.4.4,0,0,1,.39,0l3.31,2.21a2.33,2.33,0,0,0,1.29.39,2.38,2.38,0,0,0,1.12-.28A2,2,0,0,0,16,16V2A1.94,1.94,0,0,0,14,0Zm-.4,16-3.3-2.21a2.4,2.4,0,0,0-2.61,0L4.38,16A.54.54,0,0,1,4,16H4V2L14,2l0,13.92A.37.37,0,0,1,13.6,16Z"/><path d="M10.54,5.66,10,5.94V5A1,1,0,0,0,8,5v.9l-.57-.29A1,1,0,1,0,6.51,7.4l.76.4-.53.48A1,1,0,0,0,8.1,9.76L9,8.94l.83.8A1,1,0,0,0,11.21,8.3l-.5-.48.74-.38a1,1,0,1,0-.91-1.78Z"/></svg>