<svg id="motive" xmlns="http://www.w3.org/2000/svg" viewBox="0 0 60 60"><title>icon-stand-service__H60</title><path d="M27.91,18.93a1,1,0,0,0,1.52,0l7.33-8.56a1,1,0,1,0-1.52-1.3l-6.57,7.67-2.91-3.39a1,1,0,1,0-1.52,1.3Z"/><path d="M19,28H41a3,3,0,0,0,3-3V3a3,3,0,0,0-3-3H19a3,3,0,0,0-3,3V25A3,3,0,0,0,19,28ZM18,3a1,1,0,0,1,1-1H41a1,1,0,0,1,1,1V25a1,1,0,0,1-1,1H19a1,1,0,0,1-1-1Z"/><path d="M59.37,42.67a3.76,3.76,0,0,0-2.44-1.39A3.81,3.81,0,0,0,53,38c-1.87,0-4.48,1.86-7.49,4-2.46,1.76-5,3.58-6.75,4-2.33.06-4.51,0-5.76,0H23.49a1.49,1.49,0,0,1-1.05-2.55A1.32,1.32,0,0,1,23.51,43L32,43a4.18,4.18,0,0,0,4.21-4.24C36.21,36.61,34,35,32,35H19.24A20.13,20.13,0,0,0,11,36.84,18.43,18.43,0,0,0,0,53.53V60H30c4.46,0,13.27-2.41,17.38-4.07s8.31-4.2,10.33-6.22C60,47.43,60.69,44.48,59.37,42.67Zm-3.08,5.62c-1.82,1.82-5.89,4.25-9.67,5.78S34.16,58,30,58H2V53.53a16.47,16.47,0,0,1,9.92-14.91A18.46,18.46,0,0,1,19.22,37H32c1,0,2.21.83,2.21,1.76A2.18,2.18,0,0,1,32,41l-8.48,0A3.51,3.51,0,0,0,21,42a3.49,3.49,0,0,0,2.46,6H33c.46,0,11.36.45,15.39-1.27,1.56-.67,5.36-2.58,6.31-3.12a2.55,2.55,0,0,1,3.12.27C58.37,44.69,58,46.61,56.29,48.29Z"/></svg>