<svg id="motive" xmlns="http://www.w3.org/2000/svg" viewBox="0 0 60 60"><title>icon-opening-hours__H60</title><path d="M40,26.5a13.79,13.79,0,0,0-1.43.07,1,1,0,0,0,.21,2A11.68,11.68,0,0,1,40,28.5a11.5,11.5,0,0,1,4.68,22,1,1,0,1,0,.81,1.83A13.5,13.5,0,0,0,40,26.5Z"/><path d="M16,43H3a1,1,0,0,1-1-1V17H44a1,1,0,0,0,1-1V6.47A2.25,2.25,0,0,0,42.89,4H35V1a1,1,0,0,0-2,0V4H12V1a1,1,0,0,0-2,0V4H2.11A2.25,2.25,0,0,0,0,6.47V42a3,3,0,0,0,3,3H16a1,1,0,0,0,0-2ZM43,13v2H2V13Z"/><circle cx="23" cy="23" r="2"/><circle cx="8" cy="37" r="2"/><circle cx="15" cy="37" r="2"/><path d="M16.71,21.29a1,1,0,0,0-1.41,0L11.5,25.09,7.71,21.29a1,1,0,0,0-1.41,1.41l3.79,3.79L6.29,30.29a1,1,0,1,0,1.41,1.41l3.79-3.79,3.79,3.79a1,1,0,0,0,1.41-1.41L12.91,26.5l3.79-3.79A1,1,0,0,0,16.71,21.29Z"/><path d="M40,20A20,20,0,1,0,60,40,20,20,0,0,0,40,20Zm0,36A16,16,0,1,1,56,40,16,16,0,0,1,40,56Z"/><path d="M41,39.88V32.5a1.5,1.5,0,0,0-3,0v8a1.5,1.5,0,0,0,.44,1.06l3,3a1.5,1.5,0,0,0,2.12-2.12Z"/></svg>