<svg id="motive" xmlns="http://www.w3.org/2000/svg" viewBox="0 0 60 60"><title>icon-counterpart__H60</title><path d="M16,26a8,8,0,1,0,8,8A8,8,0,0,0,16,26Zm0,14a6,6,0,1,1,6-6A6,6,0,0,1,16,40Z"/><path d="M7,20H8v4a1,1,0,0,0,1.64.77l5.44-4.54a1,1,0,0,1,.64-.23H33a3,3,0,0,0,3-3V3a3,3,0,0,0-3-3H7A3,3,0,0,0,4,3V17A3,3,0,0,0,7,20Z"/><path d="M40,8H53a1,1,0,0,1,1,1V24a1,1,0,0,1-1,1H51a1,1,0,0,0-1,1v2.88L46.14,25.7a3,3,0,0,0-1.92-.7H27.05a1,1,0,0,1-1-1,1,1,0,0,0-.63-.92,1.06,1.06,0,0,0-1.13.23.94.94,0,0,0-.23,1,3,3,0,0,0,3,2.72H44.22a1,1,0,0,1,.64.24l5.51,4.54A1,1,0,0,0,52,31V27h1a3,3,0,0,0,3-3V9a3,3,0,0,0-3-3H40a1,1,0,0,0,0,2Z"/><path d="M46,32a8,8,0,1,0,8,8A8,8,0,0,0,46,32Zm0,14a6,6,0,1,1,6-6A6,6,0,0,1,46,46Z"/><path d="M53.5,47.14a1,1,0,0,0-1,1.73A7.22,7.22,0,0,1,56,55v4a1,1,0,0,0,2,0V55A9.14,9.14,0,0,0,53.5,47.14Z"/><path d="M38.5,47.14A9.11,9.11,0,0,0,34.24,53H28V49a8.88,8.88,0,0,0-4.37-7.78,1,1,0,1,0-1,1.73A6.9,6.9,0,0,1,26,49v4H6V49a7.08,7.08,0,0,1,3.55-6,1,1,0,1,0-1-1.73A9.08,9.08,0,0,0,4,49v4H1a1,1,0,0,0,0,2H34v4a1,1,0,0,0,2,0V55a7.22,7.22,0,0,1,3.5-6.14,1,1,0,1,0-1-1.73Z"/></svg>