<svg id="motive" xmlns="http://www.w3.org/2000/svg" viewBox="0 0 60 60"><title>icon-ticket__H60</title><path d="M51.6314,36.952a1.9321,1.9321,0,0,0-.2883-.5443,2.0225,2.0225,0,0,0-.9525-.6828c-.0065-.0023-.0116-.007-.0181-.0092a2.2,2.2,0,0,0-.6113-.1135A3.7927,3.7927,0,0,1,47.27,34.5237a3.6266,3.6266,0,0,1-.08-5.1,3.6958,3.6958,0,0,1,.4213-.3793,1.9512,1.9512,0,0,0,.5912-2.1755L46.3709,21.487a3.6338,3.6338,0,0,0-.2849-.6215c-.0349-.0615-.0756-.1174-.1136-.1765a3.6371,3.6371,0,0,0-.2739-.3739c-.05-.0591-.1006-.1158-.1539-.1715a3.6858,3.6858,0,0,0-.3381-.31c-.0526-.0428-.1022-.0881-.157-.128a3.7766,3.7766,0,0,0-.5562-.3412l-.006-.0024a3.8059,3.8059,0,0,0-.6059-.2291c-.066-.0192-.1335-.0312-.2007-.0469a3.7814,3.7814,0,0,0-.4541-.0789c-.0773-.0084-.1541-.0143-.2322-.0179-.0587-.0027-.116-.0135-.1749-.0135-.0974,0-.1959.0156-.2939.0231-.0714.0056-.1419.0071-.2134.0168a3.8083,3.8083,0,0,0-.678.15L2.5607,31.9454A3.6562,3.6562,0,0,0,.1934,36.59L2.04,42.0175a2.0319,2.0319,0,0,0,1.87,1.35,3.7369,3.7369,0,0,1,3.3893,2.5074,3.6308,3.6308,0,0,1-1.2364,4.0483,1.9556,1.9556,0,0,0-.5925,2.18L7.3022,57.489A3.741,3.741,0,0,0,10.8538,60a3.8091,3.8091,0,0,0,1.1854-.19l39.0732-12.78A3.6562,3.6562,0,0,0,53.48,42.3857ZM11.4175,57.9094A1.81,1.81,0,0,1,10.8538,58a1.7354,1.7354,0,0,1-1.6581-1.155L7.3683,51.44a5.6369,5.6369,0,0,0,1.824-6.21A5.77,5.77,0,0,0,3.9951,41.369c-.0269-.0012-.0473-.0065-.0574-.0065-.0047,0-.0071.0012-.007.0043L2.0869,35.9462A1.6,1.6,0,0,1,2.172,34.707a1.71,1.71,0,0,1,1.01-.8608l29.6267-9.69,8.19,24.0778Z"/><path d="M31.4546,15.9014a.999.999,0,0,0,.3213-.0537l12.145-4.1211a1,1,0,1,0-.6426-1.8936l-12.145,4.1211a1,1,0,0,0,.3213,1.9473Z"/><path d="M28.2827,32.5508a.9981.9981,0,0,0-1.2617-.6387l-13.4619,4.41a1,1,0,1,0,.623,1.9l13.4619-4.41A1,1,0,0,0,28.2827,32.5508Z"/><path d="M32.1372,43.8652a.9973.9973,0,0,0-1.2617-.6387l-13.4614,4.41a1,1,0,1,0,.623,1.9l13.4614-4.41A1,1,0,0,0,32.1372,43.8652Z"/><path d="M30.21,38.208a.9981.9981,0,0,0-1.2617-.6387l-13.4619,4.41a1,1,0,1,0,.623,1.9l13.4619-4.41A1,1,0,0,0,30.21,38.208Z"/><path d="M59.8234,21.3008l-1.6818-4.944A1.8491,1.8491,0,0,0,56.44,15.1286a3.4,3.4,0,0,1-3.0836-2.2814A3.3012,3.3012,0,0,1,54.3856,9.24a2.0205,2.0205,0,0,0,.6354-2.0576L53.3552,2.2853A3.4039,3.4039,0,0,0,50.1236.0006a3.464,3.464,0,0,0-1.0785.1726L22.076,8.9938l-.01-.0279h0l-8.6084,2.8156a3.3239,3.3239,0,0,0-2.1522,4.2228l1.6426,4.8289c.2428.7137.7923,1.4,1.5365,1.329-.002-.0036.28-.0252.3331-.0255a2.8324,2.8324,0,0,1,2.2792,1.1279.86.86,0,0,0,.9193.2717l.0147.0074,7.7972-2.5663-3.1047-10.091L49.6668,2.0741a1.4671,1.4671,0,0,1,.4568-.0735,1.399,1.399,0,0,1,1.3381.9288L53.09,7.7163a5.3078,5.3078,0,0,0-1.6272,5.775A5.4333,5.4333,0,0,0,56.29,17.1238l1.64,4.8211a1.277,1.277,0,0,1-.0681.9889,1.3769,1.3769,0,0,1-.8143.6925L51.9911,25.28a1,1,0,1,0,.6217,1.9009l5.0566-1.6539A3.3268,3.3268,0,0,0,59.8234,21.3008Z"/></svg>