<?xml version="1.0" encoding="utf-8"?>
<!DOCTYPE svg PUBLIC "-//W3C//DTD SVG 1.1//EN" "http://www.w3.org/Graphics/SVG/1.1/DTD/svg11.dtd">
<svg version="1.1" id="icon-home__H18" xmlns="http://www.w3.org/2000/svg" xmlns:xlink="http://www.w3.org/1999/xlink" x="0px" y="0px" viewBox="0 0 18 18" style="enable-background:new 0 0 18 18;" xml:space="preserve">
	<style type="text/css">
		.color {fill: #333333;}
	</style>	
	<g transform="matrix(1.3333333,0,0,-1.3333333,0,24)">
		<g transform="scale(0.1)">
			<path class="color" d="M90,60v37.5c0,8.3-6.7,15-15,15H60c-8.3,0-15-6.7-15-15V60H22.5v56.6l45,38.6l45-38.6V60H90z M132.4,125.6l-60,52.5c-2.8,2.5-7,2.5-9.9,0l-60-52.5c-2.4-2.1-3.2-5.4-2.1-8.3c1.1-2.9,3.9-4.9,7-4.9v-60c0-4.1,3.4-7.5,7.5-7.5h37.5c4.1,0,7.5,3.4,7.5,7.5v45h15v-45c0-4.1,3.4-7.5,7.5-7.5H120c4.1,0,7.5,3.4,7.5,7.5v60c3.1,0,5.9,1.9,7,4.9C135.6,120.3,134.8,123.6,132.4,125.6"/>
		</g>
	</g>
</svg>