<svg id="motive" xmlns="http://www.w3.org/2000/svg" viewBox="0 0 60 60"><title>icon-people__H60</title><path d="M30,11a5.5,5.5,0,1,0-5.5-5.5A5.51,5.51,0,0,0,30,11Zm0-9a3.5,3.5,0,1,1-3.5,3.5A3.5,3.5,0,0,1,30,2Z"/><path d="M25,14.5A5.5,5.5,0,1,0,19.5,20,5.51,5.51,0,0,0,25,14.5ZM19.5,18A3.5,3.5,0,1,1,23,14.5,3.5,3.5,0,0,1,19.5,18Z"/><path d="M46,14.5A5.5,5.5,0,1,0,40.5,20,5.51,5.51,0,0,0,46,14.5ZM40.5,18A3.5,3.5,0,1,1,44,14.5,3.5,3.5,0,0,1,40.5,18Z"/><path d="M24.5,24.5A5.5,5.5,0,1,0,30,19,5.51,5.51,0,0,0,24.5,24.5Zm9,0A3.5,3.5,0,1,1,30,21,3.5,3.5,0,0,1,33.5,24.5Z"/><path d="M34.81,30.53a1,1,0,0,0,0,1.41A6.94,6.94,0,0,1,37,37v7H23V37a6.94,6.94,0,0,1,2.15-5.05,1,1,0,0,0-1.38-1.44A8.92,8.92,0,0,0,21,37v7a2,2,0,0,0,2,2h2V58a2,2,0,0,0,2,2h6a2,2,0,0,0,2-2V46h2a2,2,0,0,0,2-2V37a8.92,8.92,0,0,0-2.78-6.5A1,1,0,0,0,34.81,30.53Z"/><path d="M9.25,30a5.5,5.5,0,1,0-5.5-5.5A5.51,5.51,0,0,0,9.25,30Zm0-9a3.5,3.5,0,1,1-3.5,3.5A3.5,3.5,0,0,1,9.25,21Z"/><path d="M15.61,33.09a5.9,5.9,0,0,0-.88-2,1,1,0,0,0-1.36-.3,8.07,8.07,0,0,1-8.26,0,1,1,0,0,0-1.36.3,5.86,5.86,0,0,0-.87,2L.05,45.56A2,2,0,0,0,2,48H3.9l1.63,9.78A2.87,2.87,0,0,0,8.5,60H10a2.87,2.87,0,0,0,3-2.22L14.59,48h1.9a2,2,0,0,0,1.95-2.44ZM11,57.45c0,.27-.46.55-1,.55H8.5c-.54,0-1-.29-1-.55L5.93,48h6.64Z"/><path d="M50.75,30a5.5,5.5,0,1,0-5.5-5.5A5.51,5.51,0,0,0,50.75,30Zm0-9a3.5,3.5,0,1,1-3.5,3.5A3.5,3.5,0,0,1,50.75,21Z"/><path d="M59.95,45.56,57.11,33.09a5.9,5.9,0,0,0-.88-2,1,1,0,0,0-1.36-.3,8.07,8.07,0,0,1-8.26,0,1,1,0,0,0-1.36.3,5.86,5.86,0,0,0-.87,2L41.56,45.56A2,2,0,0,0,43.51,48h1.9L47,57.77A2.87,2.87,0,0,0,50,60h1.5a2.87,2.87,0,0,0,3-2.22L56.1,48H58a2,2,0,0,0,1.95-2.44ZM52.5,57.45c0,.27-.46.55-1,.55H50c-.54,0-1-.29-1-.55L47.43,48h6.64Z"/></svg>