<svg id="motive" xmlns="http://www.w3.org/2000/svg" viewBox="0 0 60 60"><title>icon-trolley__H60</title><path d="M42,35H18a1,1,0,0,0,0,2H42a1,1,0,0,0,0-2Z"/><path d="M42,41H18a1,1,0,0,0,0,2H42a1,1,0,0,0,0-2Z"/><path d="M42,47H18a1,1,0,0,0,0,2H42a1,1,0,0,0,0-2Z"/><path d="M45,14H36V1a1,1,0,0,0-1-1H25a1,1,0,0,0-1,1V14H15a3,3,0,0,0-3,3V53a3,3,0,0,0,3,3h2.07a2,2,0,0,0-.07.5V58a2,2,0,0,0,4,0V56.5a2,2,0,0,0-.07-.5H39.07a2,2,0,0,0-.07.5V58a2,2,0,0,0,4,0V56.5a2,2,0,0,0-.07-.5H45a3,3,0,0,0,3-3V17A3,3,0,0,0,45,14ZM26,2h8V14H26ZM45,54H15a1,1,0,0,1-1-1V30H46V53A1,1,0,0,1,45,54Z"/></svg>