<svg id="motive" xmlns="http://www.w3.org/2000/svg" viewBox="0 0 60 60"><title>icon-news__H60</title><path d="M7,41H21a1,1,0,1,0,0-2H7a1,1,0,0,0,0,2Z"/><path d="M21,44H7a1,1,0,0,0,0,2H21a1,1,0,1,0,0-2Z"/><rect x="5.96" y="27" width="16" height="8" rx="1" ry="1"/><path d="M26,13.31l0,0A3.43,3.43,0,0,0,24.58,13H3.34A3.36,3.36,0,0,0,0,16.33V56.67A3.36,3.36,0,0,0,3.34,60H24.58A3.36,3.36,0,0,0,28,56.67V16.33A3.34,3.34,0,0,0,26,13.31Zm0,36.93H2V23H26ZM15.46,54.5A1.5,1.5,0,1,1,14,53,1.5,1.5,0,0,1,15.46,54.5ZM3.34,15H24.58a1.43,1.43,0,0,1,.6.13h0A1.31,1.31,0,0,1,26,16.33V21H2V16.33A1.36,1.36,0,0,1,3.34,15Z"/><path d="M60,34.77a1,1,0,0,0-.59-.73c-2.83-1.21-5.88-6.1-6.67-10.67l-1.14-6.69A14,14,0,0,0,38.83,5.06a1,1,0,0,0,.06-.51L38.63,3a3.61,3.61,0,0,0-7.12,1.22l.26,1.54a1,1,0,0,0,.22.45,14,14,0,0,0-4.81,3.52,1,1,0,1,0,1.5,1.32A12.06,12.06,0,0,1,49.6,17l1.14,6.69a19.84,19.84,0,0,0,5.68,10.73l-24.6,4.22a1,1,0,0,0,.17,2h.17L35.93,40a5.13,5.13,0,0,0,4.91,3.63,5.29,5.29,0,0,0,.89-.08A5.17,5.17,0,0,0,46,38.26L59.17,36a1,1,0,0,0,.65-.44A1.06,1.06,0,0,0,60,34.77ZM35.34,5.2a13.93,13.93,0,0,0-1.6.38.94.94,0,0,0,0-.16l-.26-1.54a1.61,1.61,0,0,1,3.18-.55l.26,1.54A1,1,0,0,0,37,5,14.23,14.23,0,0,0,35.34,5.2Zm6,36.37a3.16,3.16,0,0,1-3.47-1.93l6.1-1A3.18,3.18,0,0,1,41.38,41.57Z"/><path d="M12,19h4a1,1,0,0,0,0-2H12a1,1,0,0,0,0,2Z"/><circle cx="18.96" cy="18" r="1"/><path d="M55.57,47.91s-3.1,3-11.28,4.55-12.13,0-12.16,0a1,1,0,1,0-.79,1.84,16.83,16.83,0,0,0,6.18.89,37.83,37.83,0,0,0,7.15-.74c8.86-1.71,12.18-5,12.32-5.1a1,1,0,0,0-1.41-1.42Z"/><path d="M39.13,49.71a22.71,22.71,0,0,0,4.19-.36,16.45,16.45,0,0,0,5.15-1.91,1,1,0,0,0-1.06-1.7,14.52,14.52,0,0,1-4.47,1.64,23.07,23.07,0,0,1-5.55.26,1,1,0,0,0-.18,2C37.27,49.64,38,49.71,39.13,49.71Z"/></svg>