<svg id="motive" xmlns="http://www.w3.org/2000/svg" viewBox="0 0 60 60"><title>icon-download__H60</title><path d="M29.25,32.66a1,1,0,0,0,1.49,0l8-9a1,1,0,1,0-1.49-1.33l-6.25,7V1a1,1,0,0,0-2,0V29.37l-6.25-7a1,1,0,1,0-1.49,1.33Z"/><path d="M60,40.48a5,5,0,0,0-.35-1.6L53.86,24.42A5,5,0,0,0,49.12,21H44a1,1,0,0,0,0,2h5.12A3,3,0,0,1,52,25.11L56.73,37H48.9a6,6,0,0,0-5.21,3l-1.12,2a4,4,0,0,1-3.47,2H20.9a4,4,0,0,1-3.47-2l-1.12-2a6,6,0,0,0-5.21-3H3.27L8,25.05A3,3,0,0,1,10.88,23H16a1,1,0,0,0,0-2H10.88a5,5,0,0,0-4.72,3.36L.43,38.72A6,6,0,0,0,0,40.64c0,.16,0,.3,0,.36V56a4,4,0,0,0,4,4H56a4,4,0,0,0,4-4V41C60,40.92,60,40.71,60,40.48Z"/></svg>