<?xml version="1.0" encoding="utf-8"?>
<!-- Generator: Adobe Illustrator 15.0.0, SVG Export Plug-In . SVG Version: 6.00 Build 0)  -->
<!DOCTYPE svg PUBLIC "-//W3C//DTD SVG 1.1//EN" "http://www.w3.org/Graphics/SVG/1.1/DTD/svg11.dtd">
<svg version="1.1" id="icon-arrow-right" xmlns="http://www.w3.org/2000/svg" xmlns:xlink="http://www.w3.org/1999/xlink" x="0px"
	 y="0px" width="595.279px" height="476.223px" viewBox="0 182.833 595.279 476.223"
	 enable-background="new 0 182.833 595.279 476.223" xml:space="preserve">
<style type="text/css">
		.color {fill: #333333;}
	</style>
	 <path class="color" d="M583.374,393.166L384.948,194.739c-15.874-15.875-39.686-15.875-55.56,0c-15.874,15.874-15.874,39.685,0,55.559
	L460.35,381.26H39.686C19.843,381.26,0,401.103,0,420.945c0,19.843,19.843,39.685,39.686,39.685H460.35L329.388,591.591
	c-15.874,15.875-15.874,39.686,0,55.561c15.874,15.873,39.686,15.873,55.56,0l198.427-198.428
	c7.938-7.936,11.905-15.873,11.905-27.779S591.312,401.103,583.374,393.166z"/>
</svg>
