<svg id="motive" xmlns="http://www.w3.org/2000/svg" viewBox="0 0 60 60"><title>icon-media__H60</title><path d="M54,13.59a1,1,0,0,0-1,1v21a1,1,0,0,0,2,0V15.73a4,4,0,0,1,3,3.84V38a4,4,0,0,1-8,0V3.5A3.5,3.5,0,0,0,46.5,0h-26A3.5,3.5,0,0,0,17,3.5V10a1,1,0,0,0,2,0V3.5A1.5,1.5,0,0,1,20.5,2h26A1.5,1.5,0,0,1,48,3.5V38a6,6,0,0,0,1.54,4H31a1,1,0,0,0,0,2H54a6,6,0,0,0,6-6V19.57A6,6,0,0,0,54,13.59Z"/><path d="M43,25H31a1,1,0,0,0,0,2H43a1,1,0,0,0,0-2Z"/><path d="M43,32H31a1,1,0,0,0,0,2H43a1,1,0,0,0,0-2Z"/><path d="M21,39H7a1,1,0,0,0,0,2H21a1,1,0,0,0,0-2Z"/><path d="M21,44H7a1,1,0,0,0,0,2H21a1,1,0,0,0,0-2Z"/><rect x="6" y="27" width="16" height="8" rx="1" ry="1"/><path d="M24.62,13H3.38A3.36,3.36,0,0,0,0,16.33V56.67A3.36,3.36,0,0,0,3.38,60H24.62A3.36,3.36,0,0,0,28,56.67V16.33A3.36,3.36,0,0,0,24.62,13ZM15.5,54.5A1.5,1.5,0,1,1,14,53,1.5,1.5,0,0,1,15.5,54.5ZM2,50.24V23H26V50.24ZM3.38,15H24.62A1.36,1.36,0,0,1,26,16.33V21H2V16.33A1.36,1.36,0,0,1,3.38,15Z"/><path d="M12,19h4a1,1,0,0,0,0-2H12a1,1,0,0,0,0,2Z"/><circle cx="19" cy="18" r="1"/><path d="M30,17v2a1,1,0,0,0,1,1H43a1,1,0,0,0,1-1V10a1,1,0,0,0-1-1H24a1,1,0,0,0,0,2h1a5,5,0,0,1,5,5Z"/></svg>