<svg id="motive" xmlns="http://www.w3.org/2000/svg" viewBox="0 0 16 16"><title>icon-world__H16</title><path d="M8,0a8,8,0,1,0,8,8A8.0092,8.0092,0,0,0,8,0ZM8,14A6.0064,6.0064,0,0,1,2.0418,8.683a1.5408,1.5408,0,0,1,.9665-.8915l.2676-.13a3.585,3.585,0,0,0,1.93-1.999,3.629,3.629,0,0,0-.0322-2.78L5.117,2.7406a5.9826,5.9826,0,0,1,5.7183-.0262,1.8209,1.8209,0,0,0,.2716,2.4179.8634.8634,0,0,1,.2134.8291.853.853,0,0,1-1.0308.6279,1.0968,1.0968,0,0,1-.127-.0356c-.0693-.0435-.1885-.1079-.415-.2246a2.9718,2.9718,0,0,0-1.874-.2168A3.03,3.03,0,0,0,8.48,12.1108a3.0132,3.0132,0,0,0,2.7085-1.6978.9841.9841,0,0,1,.64-.5127,1,1,0,0,1,.8257.1313,4.6569,4.6569,0,0,0,.8079.4376A6.0037,6.0037,0,0,1,8,14Z"/></svg>