<svg id="motive" xmlns="http://www.w3.org/2000/svg" viewBox="0 0 60 60"><title>icon-media-item__H60</title><path d="M49,9H3a3,3,0,0,0-3,3V57a3,3,0,0,0,3,3H49a3,3,0,0,0,3-3V12A3,3,0,0,0,49,9Zm1,48a1,1,0,0,1-1,1H3a1,1,0,0,1-1-1V12a1,1,0,0,1,1-1H49a1,1,0,0,1,1,1Z"/><path d="M57,0H11A3,3,0,0,0,8,3V5a1,1,0,0,0,2,0V3a1,1,0,0,1,1-1H57a1,1,0,0,1,1,1V48a1,1,0,0,1-1,1H56a1,1,0,0,0,0,2h1a3,3,0,0,0,3-3V3A3,3,0,0,0,57,0Z"/><path d="M44,20H30a1,1,0,0,0,0,2H44a1,1,0,0,0,0-2Z"/><path d="M30,28H41a1,1,0,0,0,0-2H30a1,1,0,0,0,0,2Z"/><rect x="6" y="15" width="18" height="18" rx="3" ry="3"/><path d="M44,41H30a1,1,0,0,0,0,2H44a1,1,0,0,0,0-2Z"/><path d="M41,47H30a1,1,0,0,0,0,2H41a1,1,0,0,0,0-2Z"/><path d="M21,36H9a3,3,0,0,0-3,3V51a3,3,0,0,0,3,3H21a3,3,0,0,0,3-3V39A3,3,0,0,0,21,36ZM8,39.41,13.59,45,8,50.59ZM9.41,38H20.59L15,43.59ZM15,46.41,20.59,52H9.41ZM16.41,45,22,39.41V50.59Z"/></svg>