<svg id="motive" xmlns="http://www.w3.org/2000/svg" viewBox="0 0 60 60"><title>icon-gastronomie__H60</title><path d="M42.64,46l.58-.47a12.53,12.53,0,0,0,3.68-4.06,1,1,0,1,0-1.79-.89A10.75,10.75,0,0,1,42,43.95l-.61.5A1,1,0,0,0,42.64,46Z"/><path d="M32.72,49A24,24,0,1,1,49.48,31a1,1,0,0,0,2,.42A26,26,0,1,0,33.28,51,1,1,0,0,0,32.72,49Z"/><path d="M20.64,9.86A17,17,0,0,0,9,26a1,1,0,0,0,2,0A15,15,0,0,1,21.27,11.76a1,1,0,0,0-.63-1.9Z"/><path d="M49,55.05,41.4,48.58l-9.35-9.35A7.13,7.13,0,0,0,33,35.91a6.5,6.5,0,0,0-1.83-4.75l-6.63-6.63a1,1,0,0,0-1.41,1.41l4.42,4.42a1,1,0,0,1-1.41,1.41l-4.42-4.42a1,1,0,0,0-1.41,1.41l4.42,4.42a1,1,0,0,1-1.41,1.41l-4.42-4.42a1,1,0,0,0-1.41,1.41L21.85,36a1,1,0,0,1-1.41,1.41L16,33a1,1,0,0,0-1.41,1.41l6.63,6.63a6.41,6.41,0,0,0,4.57,1.83A7.22,7.22,0,0,0,29.2,42l9.32,9.32L45,59a2.79,2.79,0,0,0,2,1h.15a2.79,2.79,0,0,0,2-.82h0a2.79,2.79,0,0,0-.2-4.13Z"/><path d="M59,43.05l-7.55-6.51L28.07,13.24a1,1,0,0,0-1.7.62,17.64,17.64,0,0,0,5.12,14.05l3.73,3.63a5,5,0,0,0,6.23.64l7.07,7.16L55,47a2.79,2.79,0,0,0,2,1h.15a2.79,2.79,0,0,0,2-.82h0a2.79,2.79,0,0,0-.2-4.13Z"/></svg>