<svg id="motive" xmlns="http://www.w3.org/2000/svg" viewBox="0 0 18 18"><title>icon-hall-plan__H18</title><path d="M16,18H2a2,2,0,0,1-1.79-2.9L2.5,10.56a1,1,0,1,1,1.79.9L2,16H16l-2.28-4.56a1,1,0,1,1,1.79-.89l2.28,4.56A2,2,0,0,1,16,18Z"/><path d="M12.56,1.48A5,5,0,0,0,9,0H9A5,5,0,0,0,4,5a4.74,4.74,0,0,0,.6,2.39l0,0,3,5.77A1.64,1.64,0,0,0,9,14H9a1.67,1.67,0,0,0,1.43-.83l3-5.65,0,0A5,5,0,0,0,14,5,4.94,4.94,0,0,0,12.56,1.48ZM9,6.5A1.5,1.5,0,1,1,10.5,5,1.5,1.5,0,0,1,9,6.5Z"/><path d="M16,18H2A2,2,0,0,1,.21,15.11L2.5,10.56a1,1,0,1,1,1.79.9L2,16H16l-2.28-4.56a1,1,0,1,1,1.79-.89l2.28,4.56A2,2,0,0,1,16,18Z"/><path d="M12.56,1.48A5,5,0,0,0,9,0H9A5,5,0,0,0,4,5a4.74,4.74,0,0,0,.6,2.39l0,0,3,5.77A1.64,1.64,0,0,0,9,14H9a1.67,1.67,0,0,0,1.43-.83l3-5.65,0,0A5,5,0,0,0,14,5,4.94,4.94,0,0,0,12.56,1.48ZM9,6.5A1.5,1.5,0,1,1,10.5,5,1.5,1.5,0,0,1,9,6.5Z"/></svg>