<?xml version="1.0" encoding="utf-8"?>
<!DOCTYPE svg PUBLIC "-//W3C//DTD SVG 1.1//EN" "http://www.w3.org/Graphics/SVG/1.1/DTD/svg11.dtd">
<svg version="1.1" id="icon-social-youtube__H20" xmlns="http://www.w3.org/2000/svg" xmlns:xlink="http://www.w3.org/1999/xlink" x="0px" y="0px" viewBox="0 0 27 20" style="enable-background:new 0 0 27 20;" xml:space="preserve">
	<style type="text/css">
		.color {fill: #000000;}
	</style>
	<g transform="matrix(1.3333333,0,0,-1.3333333,0,957.89333)">
		<g transform="scale(0.1)">
			<path class="color" d="M79.2,7081.5l0,59.9l57.6-30.1L79.2,7081.5z M200.4,7151.8c0,0-2.1,14.7-8.5,21.2c-8.1,8.5-17.2,8.5-21.4,9c-29.8,2.2-69.2,2.2-69.2,2.2h-0.1c0,0-39.4,0-69.2-2.2c-4.2-0.5-13.3-0.5-21.4-9c-6.4-6.5-8.5-21.2-8.5-21.2S0,7134.6,0,7117.3v-16.2c0-17.3,2.1-34.5,2.1-34.5s2.1-14.7,8.5-21.2c8.1-8.5,18.8-8.2,23.5-9.1c17.1-1.6,67.1-2.1,67.1-2.1s39.4,0.1,69.3,2.2c4.2,0.5,13.3,0.5,21.4,9c6.4,6.5,8.5,21.2,8.5,21.2s2.1,17.3,2.1,34.5v16.2C202.5,7134.6,200.4,7151.8,200.4,7151.8"/>
		</g>
	</g>
</svg>
