<?xml version="1.0" encoding="utf-8"?>
<!-- Generator: Adobe Illustrator 15.0.0, SVG Export Plug-In . SVG Version: 6.00 Build 0)  -->
<!DOCTYPE svg PUBLIC "-//W3C//DTD SVG 1.1//EN" "http://www.w3.org/Graphics/SVG/1.1/DTD/svg11.dtd">
<svg version="1.1" id="icon-social-twitter-small" xmlns="http://www.w3.org/2000/svg" xmlns:xlink="http://www.w3.org/1999/xlink"
	 x="0px" y="0px" width="595.279px" height="476.225px" viewBox="0 182.833 595.279 476.225"
	 enable-background="new 0 182.833 595.279 476.225" xml:space="preserve">
<path fill="#FFFFFF" d="M535.752,301.889c0,4.762,0,7.143,0,16.667c0,30.955-4.763,64.291-14.287,97.626
	c-9.524,30.956-23.811,64.29-42.86,92.864c-19.049,28.574-42.859,54.766-71.434,76.195c-26.192,21.432-59.527,42.861-97.626,52.385
	c-38.098,16.668-78.576,21.432-121.437,21.432c-69.053,0-130.962-19.051-188.108-52.385c9.524,2.381,19.049,2.381,28.573,2.381
	c54.766,0,107.15-16.668,152.392-52.385c-26.192,0-50.004-7.145-71.434-23.813s-35.717-35.717-42.86-59.527
	c9.524,2.381,16.668,2.381,23.812,2.381c11.905,0,21.43-2.381,33.336-4.762c-28.574-4.762-52.385-19.049-71.434-42.859
	c-19.049-23.812-26.192-47.624-26.192-76.197v-2.381c16.668,9.525,35.717,14.287,54.766,16.668
	c-16.668-9.524-30.955-26.192-40.479-45.241s-14.286-35.717-14.286-57.147s4.762-42.86,16.668-61.909
	c30.954,38.098,66.671,66.671,111.912,90.482c42.86,21.43,90.482,33.336,140.486,38.098c-2.381-9.524-4.763-19.049-4.763-28.573
	c0-33.336,11.906-61.909,35.717-85.721c26.192-21.43,54.766-33.335,85.721-33.335c35.717,0,64.29,11.905,88.102,38.098
	c26.192-7.143,54.766-16.667,78.577-28.573c-9.524,28.573-26.192,52.385-54.767,66.671c23.812-2.381,47.623-7.144,71.434-16.668
	C580.993,263.791,559.563,285.221,535.752,301.889z"/>
</svg>
