<svg id="motive" xmlns="http://www.w3.org/2000/svg" viewBox="0 0 17.9999 18"><title>icon-event__H18</title><path d="M17.8945,11.558,16.1177,8.0029,17.8931,4.441a1.0006,1.0006,0,0,0-.895-1.4469h-.001L10.8177,3,9.9365.6495A1.0008,1.0008,0,0,0,9,.0008H1.0884c-.0217-.002-.043.0005-.0649,0h-.02L1,0A1,1,0,0,0,0,1c0,.0067.0037.0123.0038.0189a1.1694,1.1694,0,0,0,.0484.2994l5.5,16.0062a1,1,0,0,0,1.8916-.6506l-2.2917-6.67h3.127l.7722,2.3173a.97.97,0,0,0,.0881.1685c.0137.0239.0219.049.0375.0718a.9967.9967,0,0,0,.8212.4433v0H17a1.0008,1.0008,0,0,0,.8945-1.4478ZM4.4646,8.0039,2.4021,2.0016h5.905l2.25,6.0023Zm7.3967,3.0012.9338-1.4012c.0081-.0108.019-.0188.0267-.03a.9919.9919,0,0,0,.1533-.3769l.0054-.0219a.9932.9932,0,0,0-.0018-.3474c-.0039-.0226-.01-.0433-.0157-.0655a.9871.9871,0,0,0-.0264-.11L11.5674,5l3.8139-.0035L14.105,7.5575a1.0013,1.0013,0,0,0,0,.8939l1.2764,2.5537Z"/></svg>