<svg id="motive" xmlns="http://www.w3.org/2000/svg" viewBox="0 0 60 60"><title>icon-facts-and-figures__H60</title><path d="M49,9H3a3,3,0,0,0-3,3V57a3,3,0,0,0,3,3H49a3,3,0,0,0,3-3V12A3,3,0,0,0,49,9Zm1,48a1,1,0,0,1-1,1H3a1,1,0,0,1-1-1V12a1,1,0,0,1,1-1H49a1,1,0,0,1,1,1Z"/><path d="M57,0H11A3,3,0,0,0,8,3V5a1,1,0,0,0,2,0V3a1,1,0,0,1,1-1H57a1,1,0,0,1,1,1V48a1,1,0,0,1-1,1H56a1,1,0,0,0,0,2h1a3,3,0,0,0,3-3V3A3,3,0,0,0,57,0Z"/><path d="M26,17A17,17,0,1,0,43,34,17,17,0,0,0,26,17Zm7.71,4.16L26,33.15V19A14.89,14.89,0,0,1,33.71,21.16Zm2.28,24L26.7,35.71a1,1,0,0,0,.14-.17L35.36,22.3A14.94,14.94,0,0,1,36,45.16Z"/></svg>