<svg id="motive" xmlns="http://www.w3.org/2000/svg" viewBox="0 0 60 60"><title>icon-segmente__H60</title><path d="M53,27a7,7,0,0,0-6.59,4.66L39,30.18c0-.06,0-.12,0-.18a9,9,0,0,0-5.49-8.28l1.74-5.82a8,8,0,1,0-1.92-.55l-1.73,5.81A8.87,8.87,0,0,0,24.39,23L12.71,11.29a1,1,0,0,0-.13-.08,7,7,0,1,0-1.37,1.37,1,1,0,0,0,.08.13L23,24.39a9,9,0,0,0,0,11.22L14.61,44A9,9,0,1,0,16,45.39L24.39,37a9,9,0,0,0,9.17,1.24l5.18,9.2a7,7,0,1,0,1.74-1l-5.19-9.22a9,9,0,0,0,3.43-5.1L46,33.62c0,.13,0,.25,0,.38a7,7,0,1,0,7-7ZM30.5,8a6,6,0,1,1,4.39,5.77l0,0h-.08A6,6,0,0,1,30.5,8ZM7,12a5,5,0,1,1,5-5A5,5,0,0,1,7,12ZM48,53a5,5,0,1,1-5-5A5,5,0,0,1,48,53ZM30,37a7,7,0,1,1,7-7A7,7,0,0,1,30,37Zm23,2a5,5,0,1,1,5-5A5,5,0,0,1,53,39Z"/></svg>