<?xml version="1.0" encoding="utf-8"?>
<!-- Generator: Adobe Illustrator 15.0.0, SVG Export Plug-In . SVG Version: 6.00 Build 0)  -->
<!DOCTYPE svg PUBLIC "-//W3C//DTD SVG 1.1//EN" "http://www.w3.org/Graphics/SVG/1.1/DTD/svg11.dtd">
<svg version="1.1" id="icon-social-xing-small" xmlns="http://www.w3.org/2000/svg" xmlns:xlink="http://www.w3.org/1999/xlink"
	 x="0px" y="0px" width="595.28px" height="700.331px" viewBox="-0.233 70.78 595.28 700.331"
	 enable-background="new -0.233 70.78 595.28 700.331" xml:space="preserve">
<g transform="matrix(1.3333333,0,0,-1.3333333,0,26.666667)">
	<g transform="scale(0.1)">
		<path fill="#FFFFFF" d="M406.188-1367.339c-45.52,0-84.038-17.509-101.543-49.025c-21.013-31.512-17.512-73.535,3.501-115.554
			l511.238-885.919v-3.501L14.006-3843.01c-21.006-42.012-21.006-84.038,0-115.547c21.013-31.523,56.03-52.529,101.55-52.529
			h756.358c112.053,0,168.076,77.036,206.594,147.07c0,0,787.874,1393.656,815.881,1446.178
			c-3.501,3.505-521.741,906.929-521.741,906.929c-38.518,66.53-94.548,143.569-210.103,143.569H406.188L406.188-1367.339"/>
		<path fill="#FFFFFF" d="M3585.683-330.852c-112.046,0-161.074-70.034-203.093-143.569c0,0-1628.262-2895.868-1684.292-2990.409
			c3.501-3.501,1075.005-1974.932,1075.005-1974.932c38.518-66.533,94.548-143.569,210.103-143.569h756.35
			c45.527,0,80.545,17.52,101.551,49.028c21.013,31.509,21.013,73.535,0,115.562l-1068.003,1950.41v3.501L4447.092-498.932
			c21.013,42.019,21.013,84.038,0,115.554c-17.505,31.516-56.023,49.025-101.55,49.025L3585.683-330.852L3585.683-330.852
			L3585.683-330.852L3585.683-330.852"/>
	</g>
</g>
</svg>
