<?xml version="1.0" encoding="utf-8"?>
<!DOCTYPE svg PUBLIC "-//W3C//DTD SVG 1.1//EN" "http://www.w3.org/Graphics/SVG/1.1/DTD/svg11.dtd">
<svg version="1.1" id="icon-social-blog__H20" xmlns="http://www.w3.org/2000/svg" xmlns:xlink="http://www.w3.org/1999/xlink" x="0px" y="0px"
	 viewBox="0 0 20 20" style="enable-background:new 0 0 20 20;" xml:space="preserve">
	<style type="text/css">
		.color {fill: #000000;}
	</style>
	<g transform="matrix(1.3333333,0,0,-1.3333333,0,26.666667)">
		<g transform="scale(0.1)">
			<path class="color" d="M110.4,50H17.3C7.9,50,0,57.9,0,67.2v115.5c0,9.3,7.9,17.2,17.3,17.2h93.1c9.4,0,17.3-7.9,17.3-17.2V170c0-4.1-3.4-7.5-7.5-7.5c-4.2,0-7.5,3.4-7.5,7.5v12.8c0,1.1-1.1,2.2-2.2,2.2H17.3c-1.1,0-2.2-1.1-2.2-2.2V67.2c0-1.1,1.1-2.2,2.2-2.2h93.1c1.1,0,2.2,1.1,2.2,2.2V95c0,4.1,3.4,7.5,7.5,7.5c4.2,0,7.5-3.4,7.5-7.5V67.2C127.7,57.9,119.8,50,110.4,50"/>
			<path class="color" d="M75.1,128.8H37.5c-4.1,0-7.5,3.4-7.5,7.5s3.4,7.5,7.5,7.5H75c4.2,0,7.5-3.4,7.5-7.5S79.2,128.8,75.1,128.8"/>
			<path class="color" d="M90.1,155H37.5c-4.1,0-7.5,3.4-7.5,7.5s3.4,7.5,7.5,7.5h52.6c4.2,0,7.5-3.4,7.5-7.5S94.3,155,90.1,155"/>
			<path class="color" d="M67.6,102.5h-30c-4.1,0-7.5,3.4-7.5,7.5s3.4,7.5,7.5,7.5h30c4.1,0,7.5-3.4,7.5-7.5S71.7,102.5,67.6,102.5"/>
			<path class="color" d="M106.6,107l-4.5-4.5h-15v14.3l5.3,5.2L106.6,107"/>
			<path class="color" d="M146.5,163.3c-3.8,3.8-9.8,3.8-13.5,0l-34.5-34.5l14.3-14.3l34.5,34.5c3.6,3.8,3.6,9.8-0.1,13.5L146.5,163.3z"/>
		</g>
	</g>
</svg>