<svg xmlns="http://www.w3.org/2000/svg" viewBox="0 0 18 18"><defs><style>.cls-1{font-size:3px;fill:#fff;font-family:MyriadPro-Regular, Myriad Pro;}.cls-2{letter-spacing:-0.01em;}.cls-3{letter-spacing:0em;}</style></defs><title>icon-favorit__H18</title><g id="motive"><path d="M14.7,18a1,1,0,0,1-.38-.08L9,15.73,3.68,17.92a1,1,0,0,1-1.37-1L3,11.27.2,7.59A1,1,0,0,1,.73,6L5.4,4.7,8.16.45a1,1,0,0,1,1.68,0L12.6,4.7,17.27,6a1,1,0,0,1,.53,1.56L15,11.27l.65,5.6a1,1,0,0,1-1,1.12ZM9,13.65a1,1,0,0,1,.38.08l4.13,1.7L13,11.11a1,1,0,0,1,.19-.72l2.13-2.84-3.64-1a1,1,0,0,1-.56-.42L9,2.83,6.87,6.1a1,1,0,0,1-.56.42l-3.64,1L4.8,10.39a1,1,0,0,1,.19.72l-.5,4.31,4.13-1.7A1,1,0,0,1,9,13.65Z"/><path d="M14.7,18a1,1,0,0,1-.38-.08L9,15.73,3.68,17.92a1,1,0,0,1-1.37-1L3,11.27.2,7.59A1,1,0,0,1,.73,6L5.4,4.7,8.16.45a1,1,0,0,1,1.68,0L12.6,4.7,17.27,6a1,1,0,0,1,.53,1.56L15,11.27l.65,5.6a1,1,0,0,1-1,1.12ZM9,13.65a1,1,0,0,1,.38.08l4.13,1.7L13,11.11a1,1,0,0,1,.19-.72l2.13-2.84-3.64-1a1,1,0,0,1-.56-.42L9,2.83,6.87,6.1a1,1,0,0,1-.56.42l-3.64,1L4.8,10.39a1,1,0,0,1,.19.72l-.5,4.31,4.13-1.7A1,1,0,0,1,9,13.65Z"/></g><g id="text"><text class="cls-1"><tspan x="4.89" y="-4.27">f</tspan><tspan class="cls-2" x="5.77" y="-4.27">av</tspan><tspan x="8.61" y="-4.27">o</tspan><tspan class="cls-3" x="10.25" y="-4.27">r</tspan><tspan x="11.25" y="-4.27">it</tspan></text></g></svg>