<svg id="motive" xmlns="http://www.w3.org/2000/svg" viewBox="0 0 60 60"><title>icon-app__H60</title><path d="M44,0H16a4,4,0,0,0-4,4V7a1,1,0,0,0-1,1v3.5a1,1,0,0,0,1,1V14a1,1,0,0,0-1,1v3.5a1,1,0,0,0,1,1V56a4,4,0,0,0,4,4H44a4,4,0,0,0,4-4V4A4,4,0,0,0,44,0ZM28,54a2,2,0,1,1,2,2A2,2,0,0,1,28,54ZM14,49V11H46V49ZM14,4a2,2,0,0,1,2-2H44a2,2,0,0,1,2,2V9H14Z"/><path d="M25,15H21a3,3,0,0,0-3,3v4a3,3,0,0,0,3,3h4a3,3,0,0,0,3-3V18A3,3,0,0,0,25,15Zm1,7a1,1,0,0,1-1,1H21a1,1,0,0,1-1-1V18a1,1,0,0,1,1-1h4a1,1,0,0,1,1,1Z"/><path d="M31,5H25a1,1,0,0,0,0,2h6a1,1,0,0,0,0-2Z"/><circle cx="34" cy="6" r="1"/></svg>