<?xml version="1.0" encoding="utf-8"?>
<!-- Generator: Adobe Illustrator 21.1.0, SVG Export Plug-In . SVG Version: 6.00 Build 0)  -->
<svg version="1.1" id="Ebene_1" xmlns="http://www.w3.org/2000/svg" xmlns:xlink="http://www.w3.org/1999/xlink" x="0px" y="0px"
	 viewBox="0 0 8 15" style="enable-background:new 0 0 8 15;" xml:space="preserve">
<title>Element 18300</title>
<g id="Ebene_2">
	<g id="motive">
		<path d="M3.4,2H7c0.6,0,1-0.4,1-1S7.6,0,7,0H1C0.4,0,0,0.4,0,1l0,6c0,0.6,0.4,1,1,1s1-0.4,1-1V3.4l3.1,3.1C5.7,7.1,6,7.9,6,8.7V14
			c0,0.6,0.4,1,1,1s1-0.4,1-1V8.7c0-1.3-0.5-2.6-1.5-3.5L3.4,2z"/>
	</g>
</g>
</svg>
