<?xml version="1.0" encoding="utf-8"?>
<!DOCTYPE svg PUBLIC "-//W3C//DTD SVG 1.1//EN" "http://www.w3.org/Graphics/SVG/1.1/DTD/svg11.dtd">
<svg version="1.1" id="icon-social-xing__H20" xmlns="http://www.w3.org/2000/svg" xmlns:xlink="http://www.w3.org/1999/xlink" x="0px" y="0px" viewBox="0 0 17 20" style="enable-background:new 0 0 17 20;" xml:space="preserve">
	<style type="text/css">
		.color {fill: #000000;}
	</style>
	<g transform="matrix(1.3333333,0,0,-1.3333333,0,26.666667)">
		<g transform="scale(0.1)">
			<path class="color" d="M11.6,170.4c-1.3,0-2.4-0.5-2.9-1.4c-0.6-0.9-0.5-2.1,0.1-3.3l14.6-25.3c0,0,0-0.1,0-0.1l-23-40.6c-0.6-1.2-0.6-2.4,0-3.3C1,95.5,2,94.9,3.3,94.9h21.6c3.2,0,4.8,2.2,5.9,4.2c0,0,22.5,39.8,23.3,41.3c-0.1,0.1-14.9,25.9-14.9,25.9c-1.1,1.9-2.7,4.1-6,4.1H11.6L11.6,170.4"/>
			<path class="color" d="M102.4,200c-3.2,0-4.6-2-5.8-4.1c0,0-46.5-82.7-48.1-85.4c0.1-0.1,30.7-56.4,30.7-56.4c1.1-1.9,2.7-4.1,6-4.1h21.6c1.3,0,2.3,0.5,2.9,1.4c0.6,0.9,0.6,2.1,0,3.3l-30.5,55.7c0,0,0,0.1,0,0.1l47.8,84.7c0.6,1.2,0.6,2.4,0,3.3c-0.5,0.9-1.6,1.4-2.9,1.4L102.4,200L102.4,200L102.4,200L102.4,200"/>
		</g>
	</g>
</svg>
