<svg id="motive" xmlns="http://www.w3.org/2000/svg" viewBox="0 0 18 18"><title>icon-phone__H18</title><path d="M7.69,13,4.88,10.09a2.09,2.09,0,0,1,0-2.91l0,0a1,1,0,0,0,0-1.45L3.44,4.31A1,1,0,0,0,2,4.31l-.46.48a5.58,5.58,0,0,0,0,7.75l3.77,3.87a5.24,5.24,0,0,0,7.55,0l.46-.48a1,1,0,0,0,0-1.45L11.91,13a1,1,0,0,0-1.41,0l0,0A2,2,0,0,1,7.69,13Z"/><path d="M12,7a1,1,0,0,1-.71-1.71l2-2A1,1,0,0,1,14.7,4.71l-2,2A1,1,0,0,1,12,7Z"/><path d="M8,5A1,1,0,0,1,7,4V1A1,1,0,0,1,9,1V4A1,1,0,0,1,8,5Z"/><path d="M17,10.87H14a.87.87,0,0,1,0-1.73h3a.87.87,0,1,1,0,1.73Z"/><path d="M7.69,13,4.88,10.09a2.09,2.09,0,0,1,0-2.91l0,0a1,1,0,0,0,0-1.45L3.44,4.31A1,1,0,0,0,2,4.31l-.46.48a5.58,5.58,0,0,0,0,7.75l3.77,3.87a5.24,5.24,0,0,0,7.55,0l.46-.48a1,1,0,0,0,0-1.45L11.91,13a1,1,0,0,0-1.41,0l0,0A2,2,0,0,1,7.69,13Z"/><path d="M12,7a1,1,0,0,1-.71-1.71l2-2A1,1,0,0,1,14.7,4.71l-2,2A1,1,0,0,1,12,7Z"/><path d="M8,5A1,1,0,0,1,7,4V1A1,1,0,0,1,9,1V4A1,1,0,0,1,8,5Z"/><path d="M17,10.87H14a.87.87,0,0,1,0-1.73h3a.87.87,0,1,1,0,1.73Z"/></svg>