<svg id="motive" xmlns="http://www.w3.org/2000/svg" viewBox="0 0 60 60"><title>icon-overnight-service__H60</title><path d="M30.5,41h.14a19.26,19.26,0,0,0,6.7-1,1,1,0,0,0,0-1.89c-6.81-2.36-14.12-8.21-14.18-17.56-.06-9.13,7.29-15.05,14.2-17.55a1,1,0,0,0,0-1.89,21.35,21.35,0,0,0-7-1.1,20.5,20.5,0,0,0,.14,41Z"/><path d="M50.29,20.71a1,1,0,0,0,1.41,0l1.79-1.79,1.79,1.79a1,1,0,0,0,1.41-1.41L54.91,17.5l1.79-1.79a1,1,0,0,0-1.41-1.41L53.5,16.09l-1.79-1.79a1,1,0,0,0-1.41,1.41l1.79,1.79-1.79,1.79A1,1,0,0,0,50.29,20.71Z"/><path d="M42.5,43a1,1,0,0,0-1,1v2.5H39a1,1,0,0,0,0,2h2.5V51a1,1,0,0,0,2,0V48.5H46a1,1,0,0,0,0-2H43.5V44A1,1,0,0,0,42.5,43Z"/><path d="M2,6.5H4.5V9a1,1,0,0,0,2,0V6.5H9a1,1,0,0,0,0-2H6.5V2a1,1,0,0,0-2,0V4.5H2a1,1,0,0,0,0,2Z"/><path d="M53.89,40A10.33,10.33,0,0,0,54,38.5,10.5,10.5,0,0,0,42,28.12a18.53,18.53,0,0,0-14.77-10,1,1,0,1,0-.18,2A16.53,16.53,0,0,1,40.5,29.65a1,1,0,0,0,1.13.56A8.48,8.48,0,0,1,51.79,40.37a1,1,0,0,0,.63,1.16A8.49,8.49,0,0,1,49.5,58h-.45a.94.94,0,0,0-.26,0H11.22a1,1,0,0,0-.28,0H10.5A8.5,8.5,0,0,1,8.63,41.21,1,1,0,0,0,9.39,40a16.44,16.44,0,0,1,.47-8.78A1,1,0,0,0,8,30.61a18.41,18.41,0,0,0-.7,8.91A10.5,10.5,0,0,0,10.5,60h39a10.49,10.49,0,0,0,4.39-20Z"/></svg>