<svg id="motive" xmlns="http://www.w3.org/2000/svg" viewBox="0 0 18 18"><title>icon-attention__H18</title><path d="M8,12a1,1,0,0,1-.71-.29l-2-2A1,1,0,0,1,6.71,8.29L8,9.59l3.29-3.29a1,1,0,0,1,1.41,1.41l-4,4A1,1,0,0,1,8,12Z"/><path d="M8.95,18a1,1,0,0,1-.41-.09C2.36,15.16,0,11.26,0,4A1,1,0,0,1,1,3,8.4,8.4,0,0,0,4.85,1.44a12.31,12.31,0,0,1,2-1.05h0a6.34,6.34,0,0,1,4.36,0,12.54,12.54,0,0,1,2,1A8.46,8.46,0,0,0,17,3a1,1,0,0,1,1,1c-.31,11-4.59,12.47-8.73,13.92A1,1,0,0,1,8.95,18ZM2,4.91c.18,6.49,2.71,9,7,11,3.53-1.25,6.54-2.59,7-11a12.57,12.57,0,0,1-3.85-1.74,11.36,11.36,0,0,0-1.62-.87,4.33,4.33,0,0,0-3,0h0a11.24,11.24,0,0,0-1.63.88A12.42,12.42,0,0,1,2,4.91ZM7.17,1.33h0Z"/><path d="M8,12a1,1,0,0,1-.71-.29l-2-2A1,1,0,0,1,6.71,8.29L8,9.59l3.29-3.29a1,1,0,0,1,1.41,1.41l-4,4A1,1,0,0,1,8,12Z"/><path d="M9,18a1,1,0,0,1-.41-.09C2.38,15.15,0,11.25,0,4A1,1,0,0,1,1,3,8.42,8.42,0,0,0,4.85,1.43a12.36,12.36,0,0,1,2-1,6.34,6.34,0,0,1,4.36,0,12.37,12.37,0,0,1,2,1A8.41,8.41,0,0,0,17,3a1,1,0,0,1,1,1c-.31,11-4.56,12.47-8.67,13.92A1,1,0,0,1,9,18ZM2,4.9c.18,6.48,2.74,9,7,11,3.64-1.29,6.49-2.57,6.92-11a12.48,12.48,0,0,1-3.85-1.75,11.29,11.29,0,0,0-1.63-.88,4.33,4.33,0,0,0-3,0h0a11.28,11.28,0,0,0-1.63.88A12.45,12.45,0,0,1,2,4.9ZM7.17,1.33h0Z"/></svg>