<svg id="motive" xmlns="http://www.w3.org/2000/svg" viewBox="0 0 18 18"><title>icon-settings__H18</title><path d="M9,11.92a3,3,0,1,1,3-3A3,3,0,0,1,9,11.92ZM9,8a1,1,0,1,0,1,1A1,1,0,0,0,9,8Z"/><path d="M11,18H7a1,1,0,0,1-1-1V14.9a.4.4,0,0,0-.6-.35L3.57,15.61a1,1,0,0,1-1.37-.37l-2-3.46a1,1,0,0,1,.37-1.37L2.4,9.35a.4.4,0,0,0,0-.69L.57,7.61A1,1,0,0,1,.21,6.24l2-3.46a1,1,0,0,1,.61-.47,1,1,0,0,1,.76.1L5.4,3.47A.4.4,0,0,0,6,3.12V1A1,1,0,0,1,7,0h4a1,1,0,0,1,1,1V3.12a.39.39,0,0,0,.2.35.39.39,0,0,0,.4,0l1.83-1.06a1,1,0,0,1,1.37.37l2,3.46a1,1,0,0,1-.37,1.37L15.6,8.66a.4.4,0,0,0,0,.69l1.83,1.06a1,1,0,0,1,.37,1.37l-2,3.46a1,1,0,0,1-1.37.37L12.6,14.55a.4.4,0,0,0-.6.35V17A1,1,0,0,1,11,18ZM8,16h2V14.9a2.4,2.4,0,0,1,3.6-2.08l1,.56,1-1.73-1-.56a2.4,2.4,0,0,1,0-4.16l1-.56-1-1.73-1,.56A2.4,2.4,0,0,1,10,3.12V2H8V3.12A2.4,2.4,0,0,1,4.4,5.2l-1-.56-1,1.73,1,.56a2.4,2.4,0,0,1,0,4.16l-1,.56,1,1.73,1-.56A2.4,2.4,0,0,1,8,14.9Z"/></svg>