<svg id="motive" xmlns="http://www.w3.org/2000/svg" viewBox="0 0 18 18"><title>icon-event-type__H18</title><path d="M17.79,10.43,16.34,3.07a1,1,0,0,0-.05-.18,3,3,0,0,0-5.57,2.24,1,1,0,1,0,1.86-.75,1,1,0,0,1,1.82-.82L15.67,10H11a1,1,0,0,0-1,1v.19a2.81,2.81,0,0,0-2,0V11a1,1,0,0,0-1-1H2.33L3.6,3.56a1,1,0,0,1,.5-.48A1,1,0,0,1,5.43,4.38a1,1,0,0,0,1.86.75A3,3,0,0,0,1.72,2.89a1,1,0,0,0-.05.18L.21,10.42A1,1,0,0,0,0,11v3a3,3,0,0,0,3,3H5a3,3,0,0,0,3-3H8a1,1,0,0,1,2,0h0a3,3,0,0,0,3,3h2a3,3,0,0,0,3-3V11A1,1,0,0,0,17.79,10.43ZM5,15H3a1,1,0,0,1-1-1V12H6v2A1,1,0,0,1,5,15Zm11-1a1,1,0,0,1-1,1H13a1,1,0,0,1-1-1V12h4Z"/></svg>