<?xml version="1.0" encoding="utf-8"?>
<!-- Generator: Adobe Illustrator 15.0.0, SVG Export Plug-In . SVG Version: 6.00 Build 0)  -->
<!DOCTYPE svg PUBLIC "-//W3C//DTD SVG 1.1//EN" "http://www.w3.org/Graphics/SVG/1.1/DTD/svg11.dtd">
<svg version="1.1" id="icon-search__H16" xmlns="http://www.w3.org/2000/svg" xmlns:xlink="http://www.w3.org/1999/xlink" x="0px"
	 y="0px" width="595.279px" height="595.281px" viewBox="0 123.305 595.279 595.281"
	 enable-background="new 0 123.305 595.279 595.281" xml:space="preserve">
<style type="text/css">
		.color {fill: #333333;}
	</style>
	 <path class="color" d="M584.118,655.337L468.783,540.001c33.484-44.646,52.087-96.732,52.087-156.261c0-145.1-115.336-260.436-260.436-260.436
	S0,238.641,0,383.74c0,145.099,115.335,260.435,260.435,260.435c59.528,0,111.615-18.604,156.261-52.088l115.336,115.336
	c14.882,14.883,37.205,14.883,52.087,0C599,692.542,599,670.218,584.118,655.337z M74.41,383.74
	c0-104.174,81.851-186.025,186.024-186.025S446.46,279.566,446.46,383.74c0,104.173-81.852,186.025-186.025,186.025
	S74.41,487.914,74.41,383.74z"/>
</svg>
