<svg id="motive" xmlns="http://www.w3.org/2000/svg" viewBox="0 0 60 60"><title>icon-hall-plan__H60</title><path d="M58,35.48,41,29.22a3,3,0,0,0-1.91,0L43,22.48h0a15,15,0,1,0-25.95,0h0l6.94,12-3.61,1.26a1,1,0,0,1-.68,0L4,30a3,3,0,0,0-4,2.81V51.42a3,3,0,0,0,2.1,2.86l17,5.37a3,3,0,0,0,1.76,0L39.7,54a1,1,0,0,1,.54,0L56,59.81A3,3,0,0,0,60,57V38.29A3,3,0,0,0,58,35.48ZM30,9.94a4,4,0,0,1,4,4,4,4,0,1,1-8,0A4,4,0,0,1,30,9.94ZM25,36.22l4.16,7.18a1,1,0,0,0,1.73,0l6.71-11.58,1.43-.5V51.88a1,1,0,0,0,0,.24L21,57.53V37.61h0ZM2,51.42V32.77a1,1,0,0,1,1.35-.94L19,37.59h0V57.51L2.7,52.37A1,1,0,0,1,2,51.42ZM58,57a1,1,0,0,1-1.35.94l-15.7-5.8a1,1,0,0,0,.05-.25V31.34l16.35,6a1,1,0,0,1,.65.94Z"/></svg>