<svg id="motive" xmlns="http://www.w3.org/2000/svg" viewBox="0 0 18 18"><title>icon-delete__H18</title><path d="M17,3h-.46L15.43,1.34A3,3,0,0,0,12.93,0H5.07a3,3,0,0,0-2.5,1.34L1.47,3H1A1,1,0,0,0,1,5h.07l.79,10.23a3,3,0,0,0,3,2.77h8.3a3,3,0,0,0,3-2.77L16.93,5H17a1,1,0,0,0,0-2ZM4.24,2.45A1,1,0,0,1,5.07,2h7.86a1,1,0,0,1,.83.45l.37.55H3.87Zm9.91,12.63a1,1,0,0,1-1,.92H4.85a1,1,0,0,1-1-.92L3.08,5H14.92Z"/><path d="M6.29,13.21a1,1,0,0,0,1.41,0L9,11.92l1.29,1.29a1,1,0,0,0,1.41-1.41l-1.29-1.29,1.29-1.29A1,1,0,0,0,10.29,7.8L9,9.09,7.71,7.8A1,1,0,0,0,6.29,9.21l1.29,1.29L6.29,11.8A1,1,0,0,0,6.29,13.21Z"/></svg>