<svg id="motive" xmlns="http://www.w3.org/2000/svg" viewBox="0 0 60 60"><title>icon-event__H60</title><path d="M59.78,39.1a1,1,0,0,0-.12-.18L49.35,26.35l6.41-12.45A2,2,0,0,0,55.7,12,2,2,0,0,0,54,11H33.82l-1.5-4H36a1,1,0,0,0,0-2H31.57L30.42,1.95A3,3,0,0,0,27.61,0H1A1,1,0,0,0,.05,1.33l20,58A1,1,0,0,0,21,60h5a1,1,0,0,0,.95-1.33L17.4,31h10l4.29,9.25A3.05,3.05,0,0,0,34.42,42H58a2,2,0,0,0,1.73-1A2,2,0,0,0,59.78,39.1ZM16.71,29,7.4,2H27.61a1,1,0,0,1,.94.65L29.43,5H26a1,1,0,0,0,0,2h4.18l7.74,20.65a1,1,0,0,1-.1.89l0,.05A1,1,0,0,1,37,29ZM35.09,40l4.53-10.6a3,3,0,0,0,.18-2.45L34.57,13H54L47.56,25.47a2,2,0,0,0,0,1.81,1,1,0,0,0,.12.18L58,40Z"/><path d="M9,41H4a1,1,0,0,0,0,2H9a1,1,0,0,0,0-2Z"/><path d="M51,46H46a1,1,0,0,0,0,2h5a1,1,0,0,0,0-2Z"/><path d="M48,54H38a1,1,0,0,0,0,2H48a1,1,0,0,0,0-2Z"/></svg>