<svg id="motive" xmlns="http://www.w3.org/2000/svg" viewBox="0 0 18 18"><title>icon-matchmaking__H18</title><circle cx="3.5" cy="3.52" r="3.5"/><path d="M14.5,11a3.5,3.5,0,1,0,3.5,3.5A3.5,3.5,0,0,0,14.5,11Zm0,5a1.5,1.5,0,1,1,1.5-1.5A1.5,1.5,0,0,1,14.5,16Z"/><path d="M8,16H8L5.5,16a1,1,0,0,1-1-1V12.43l.79.79a1,1,0,0,0,1.41-1.41l-2.5-2.5a1,1,0,0,0-1.41,0l-2.5,2.5a1,1,0,0,0,1.41,1.41l.79-.79V15a3,3,0,0,0,3,3L8,18a1,1,0,0,0,0-2Z"/><path d="M13.52,3V5.6l-.79-.79a1,1,0,0,0-1.41,1.41l2.5,2.5a1,1,0,0,0,1.41,0l2.5-2.5a1,1,0,0,0-1.41-1.41l-.79.79V3a3,3,0,0,0-3-3H10a1,1,0,0,0,0,2h2.53A1,1,0,0,1,13.52,3Z"/></svg>