<svg id="motive" xmlns="http://www.w3.org/2000/svg" viewBox="0 0 60 60"><title>icon-quote__H60</title><path d="M51.53,7.05A11.7,11.7,0,0,0,45,5,11.46,11.46,0,0,0,33.51,16.89,11.5,11.5,0,0,0,46.77,27.75,5.73,5.73,0,0,1,52.68,36l0,.07c-4.76,9.2-15.1,14.4-15.23,14.46L39.57,55c.81-.39,19.6-9.7,20.39-27C60.51,15.75,55.84,9.78,51.53,7.05Z"/><path d="M18,7.05A11.7,11.7,0,0,0,11.48,5,11.46,11.46,0,0,0,0,16.89,11.5,11.5,0,0,0,13.27,27.75,5.73,5.73,0,0,1,19.18,36l0,.07C14.38,45.25,4,50.45,3.91,50.51L6.07,55c.81-.39,19.6-9.7,20.39-27C27,15.75,22.34,9.78,18,7.05Z"/></svg>