<svg id="motive" xmlns="http://www.w3.org/2000/svg" viewBox="0 0 18 18"><title>icon-calendar__H18</title><circle cx="5" cy="9" r="1"/><circle cx="5" cy="13" r="1"/><circle cx="9" cy="9" r="1"/><circle cx="9" cy="13" r="1"/><circle cx="13" cy="9" r="1"/><circle cx="13" cy="13" r="1"/><circle cx="5" cy="9" r="1"/><circle cx="5" cy="13" r="1"/><circle cx="9" cy="9" r="1"/><circle cx="9" cy="13" r="1"/><circle cx="13" cy="9" r="1"/><circle cx="13" cy="13" r="1"/><path d="M15,2H14V1a1,1,0,0,0-2,0V2H6V1A1,1,0,0,0,4,1V2H3A3,3,0,0,0,0,5V15a3,3,0,0,0,3,3H15a3,3,0,0,0,3-3V5A3,3,0,0,0,15,2Zm0,14H3a1,1,0,0,1-1-1V6H16v9A1,1,0,0,1,15,16Z"/></svg>