<?xml version="1.0" encoding="utf-8"?>
<!-- Generator: Adobe Illustrator 21.1.0, SVG Export Plug-In . SVG Version: 6.00 Build 0)  -->
<svg version="1.1" id="Ebene_1" xmlns="http://www.w3.org/2000/svg" xmlns:xlink="http://www.w3.org/1999/xlink" x="0px" y="0px"
	 viewBox="0 0 16 16" style="enable-background:new 0 0 16 16;" xml:space="preserve">
<title>Element 23300</title>
<path d="M9.4,8l6.3-6.3c0.4-0.4,0.4-1,0-1.4s-1-0.4-1.4,0L8,6.6L1.7,0.3c-0.4-0.4-1-0.4-1.4,0s-0.4,1,0,1.4L6.6,8l-6.3,6.3
	c-0.4,0.4-0.4,1,0,1.4C0.5,15.9,0.7,16,1,16s0.5-0.1,0.7-0.3L8,9.4l6.3,6.3c0.2,0.2,0.5,0.3,0.7,0.3s0.5-0.1,0.7-0.3
	c0.4-0.4,0.4-1,0-1.4L9.4,8z"/>
</svg>
