<?xml version="1.0" encoding="utf-8"?>
<!-- Generator: Adobe Illustrator 15.0.0, SVG Export Plug-In . SVG Version: 6.00 Build 0)  -->
<!DOCTYPE svg PUBLIC "-//W3C//DTD SVG 1.1//EN" "http://www.w3.org/Graphics/SVG/1.1/DTD/svg11.dtd">
<svg version="1.1" id="icon-social-pinterest-small"
	 xmlns="http://www.w3.org/2000/svg" xmlns:xlink="http://www.w3.org/1999/xlink" x="0px" y="0px" width="593.521px"
	 height="743.09px" viewBox="-0.342 49.905 593.521 743.09" enable-background="new -0.342 49.905 593.521 743.09"
	 xml:space="preserve">
<path fill="#FFFFFF" d="M245.553,540.001c-18.603,104.174-44.646,204.627-119.056,252.994
	c-22.323-156.262,33.484-271.598,59.527-394.374c-44.646-74.41,3.721-219.51,96.733-182.305
	c115.335,44.646-100.453,267.875,44.646,297.641c148.82,29.764,212.069-252.995,119.057-342.287
	C312.522,41.454,55.808,167.951,89.292,357.696c7.44,48.367,55.808,59.528,18.603,122.776C22.323,461.871-3.72,398.622,0,309.33
	c7.44-145.1,130.218-241.833,256.715-256.715c159.98-18.603,312.521,59.528,331.124,204.628
	c29.764,163.702-66.969,342.286-238.112,331.124C305.081,584.648,282.758,562.324,245.553,540.001L245.553,540.001z"/>
</svg>
